<svg xmlns="http://www.w3.org/2000/svg" xmlns:xlink="http://www.w3.org/1999/xlink" version="1.1" id="Capa_1" x="0px" y="0px" width="571.431px" height="558.731px" viewBox="10.8 141.854 571.431 558.731" enable-background="new 10.8 141.854 571.431 558.731" xml:space="preserve">
  <g opacity="0.2">
    <path fill="none" stroke="#FFFFFF" stroke-miterlimit="10" d="M289.04,153.704c0.55,0.45,1.05,1,1.5,1.5s0.9,0.95,1.4,1.4   c8.749,7.85,18.099,12.149,26.248,12.149l0,0c8.05,0,14.9-4,20.25-11.85c2.899-4.25,5.25-9.35,6.649-14.399h-0.3   c-1.4,5.05-3.7,10.049-6.6,14.25c-5.35,7.75-12.1,11.75-20.05,11.75l0,0c-8.1,0-17.35-4.3-26.099-12.049   c-0.45-0.4-0.9-0.9-1.35-1.4c-0.5-0.5-1-1.05-1.5-1.5c-3.95-3.45-8.15-6.6-12.25-9.649c-0.6-0.45-1.2-0.9-1.8-1.35h-0.45   c0.7,0.55,1.4,1.05,2.101,1.6C280.941,147.104,285.141,150.254,289.04,153.704z"/>
    <path fill="none" stroke="#FFFFFF" stroke-miterlimit="10" d="M28.749,179.153c5.699-5.3,11.6-10.8,15.35-18.649   c1.899-4,3.8-10.3,4.649-18.1h-0.3c-0.85,7.75-2.75,14-4.6,18c-3.75,7.75-9.6,13.25-15.3,18.549   c-6.6,6.15-13.449,12.5-16.85,22.549c-0.1,0.3-0.2,0.6-0.3,0.9v0.9c0.15-0.6,0.35-1.15,0.55-1.7   C15.35,191.603,22.15,185.253,28.749,179.153z"/>
    <path fill="none" stroke="#FFFFFF" stroke-miterlimit="10" d="M316.289,156.504L316.289,156.504c2.8,0,5.5-0.95,8-2.85   c2.35-1.75,3.5-3.55,4.699-5.4c0.5-0.8,1.051-1.6,1.65-2.45c0.5-1.1,0.85-2.2,1.2-3.35h-0.301c-0.35,1.1-0.699,2.15-1.149,3.2   c-0.65,0.85-1.15,1.65-1.65,2.45c-1.199,1.85-2.35,3.6-4.6,5.35c-2.5,1.9-5.1,2.85-7.85,2.85l0,0c-7.35,0-14.35-6.5-20.549-12.25   c-0.55-0.55-1.101-1.05-1.65-1.55h-0.399c0.6,0.55,1.25,1.15,1.85,1.7C301.74,149.954,308.839,156.504,316.289,156.504z"/>
    <path fill="none" stroke="#FFFFFF" stroke-miterlimit="10" d="M16.199,225.401c1.3-6.85,2.55-13.299,4.45-17.849   c3.199-7.8,9.85-14.35,16.899-21.25c4.35-4.25,8.8-8.649,12.6-13.5c4.699-6.05,7.899-11.25,10.549-17.399   c1.551-3.65,2.9-7.85,4.2-11.899c0.101-0.35,0.25-0.75,0.351-1.1h-0.301c-0.1,0.35-0.199,0.65-0.35,1   c-1.3,4.05-2.65,8.25-4.2,11.85c-2.649,6.15-5.8,11.35-10.499,17.35c-3.75,4.8-8.25,9.199-12.55,13.449   c-7.05,7-13.75,13.55-17,21.35c-1.899,4.6-3.149,11.049-4.449,17.899c-1.25,6.6-2.55,13.449-4.5,18.399c0,0.05-0.05,0.1-0.05,0.1   v0.7c0.1-0.25,0.2-0.5,0.3-0.7C13.65,238.851,14.999,232.051,16.199,225.401z"/>
    <path fill="none" stroke="#FFFFFF" stroke-miterlimit="10" d="M37.799,310.599c9.199,3.65,20.599,8.2,24.999,17.549   c0.3,5.1-1.5,9.4-3.4,13.95c-2.649,6.4-5.699,13.649-4,24.999c1.301,8.6,6.351,14.15,12.25,20.549c2.45,2.65,4.899,5.35,7.25,8.5   c6.199,8.149,10.399,17.349,13.699,25.249c3.3,7.899,5.9,14.099,14.55,16.2c5.199,1.25,12.399,2.1,17.35,2.648   c2.75,0.301,5.3,0.451,7.6,0.451c3.8,0,7.1-0.4,9.85-1.201c5.85-1.75,9.6-6.498,14.3-12.549c1.399-1.801,2.85-3.65,4.499-5.6   c1.101-1.35,2.551-2.8,4.15-4.4c3.25-3.25,6.6-6.65,7.5-9.35c0.35-1.05,0.25-2,0.149-3.1c-0.1-0.85-0.149-1.75-0.05-2.85v-0.05   l-0.05-0.05c-3.15-4.15-6.95-7.45-10.649-10.7c-6.25-5.5-12.2-10.65-14.45-19.2c-1.199-4.5-0.75-9.299,1.3-14.699   c2.2-5.7,7.3-11.95,14.4-17.6c3.199-2.55,6.6-5.2,10.199-8c16.499-12.85,35.199-27.449,45.448-40.149v-0.1   c0.351-1.55,0.2-3.35-0.25-5.3c-1.3-5.35-5.5-11.7-11.449-17.399c-5.7-5.45-12.149-9.5-17.3-10.95c-0.399-0.1-1.2-0.35-2.1-0.5   c-6.899-1.55-14-0.45-20.899,0.55c-5.95,0.9-11.6,1.75-17.05,1.05c-11.85-1.55-20.349-9.5-23.349-21.749   c-3.95-16.1,7-26.199,17.549-35.949c7.8-7.25,15.85-14.7,18-24.5c2-9.25-0.601-19.249-2.351-25.899c-0.699-2.65-1.55-5.35-2.449-8   h-0.3c0.949,2.65,1.749,5.35,2.449,8.05c1.7,6.6,4.35,16.55,2.351,25.75c-2.101,9.75-10.15,17.199-17.899,24.399   c-10.6,9.8-21.6,20-17.6,36.199c3,12.35,11.649,20.35,23.599,21.899c5.5,0.7,11.15-0.1,17.149-1c6.851-1.05,13.95-2.1,20.8-0.55   c0.85,0.2,1.7,0.4,2.1,0.5c10.25,2.8,25.749,16.649,28.549,28.099c0.5,1.95,0.551,3.649,0.301,5.2   c-10.2,12.7-28.899,27.249-45.349,40.099c-3.601,2.8-7,5.45-10.2,8c-7.149,5.7-12.249,12-14.449,17.75   c-2.05,5.45-2.5,10.3-1.3,14.799c2.25,8.6,8.199,13.85,14.499,19.35c3.7,3.2,7.45,6.5,10.6,10.6c-0.1,1.1,0,2,0.051,2.8   c0.1,1.05,0.199,2-0.15,2.95c-0.9,2.65-4.2,6.05-7.45,9.25c-1.55,1.55-2.999,3.05-4.149,4.4c-1.65,1.95-3.1,3.799-4.5,5.6   c-4.699,6-8.399,10.75-14.149,12.449c-4.399,1.301-10.1,1.551-17.35,0.75c-5-0.551-12.199-1.4-17.35-2.65   c-8.499-2-11.1-8.199-14.349-16.049c-3.301-7.95-7.5-17.149-13.7-25.349c-2.35-3.1-4.85-5.85-7.25-8.5   c-5.85-6.35-10.899-11.899-12.149-20.399c-1.699-11.25,1.3-18.499,3.95-24.849c1.899-4.6,3.7-8.95,3.399-14.099v-0.05   c-4.449-9.4-15.899-14-25.148-17.649c-2.5-1-5.101-2.05-7.9-2.65c-6.499-1.4-12.749-2.2-18.549-2.4v0.3   c5.8,0.2,11.999,1,18.499,2.399C32.698,308.599,35.299,309.649,37.799,310.599z"/>
    <path fill="none" stroke="#FFFFFF" stroke-miterlimit="10" d="M171.844,150.104c0.7,2.75,1.55,5.45,2.351,8.1   c1.75,5.85,3.399,11.4,4.05,16.399c0.5,3.55,0.5,7.2,0,9.75c-1.351,7.65-6.5,13.649-11.5,19.449c-5.7,6.6-11.6,13.5-12.05,23.049   c0.601,8.5,10.2,9.75,20.35,11.05c1.85,0.25,3.8,0.5,5.649,0.8c7.45,1.2,16,3.55,24.75,6.85c3.05,1.15,5.999,2.6,8.85,4   c5.449,2.7,10.6,5.3,16.649,5.95c0.75,0.1,1.55,0.1,2.35,0.1c4.1,0,7.649-1.15,10.699-2.25c3.101-1.1,5.75-2.25,8.3-3.4   c5.5-2.45,10.7-4.7,18.75-5.45c1.399-0.15,2.899-0.2,4.35-0.2c8.7,0,15.999,2.3,23.099,4.5c6.101,1.95,11.9,3.75,17.85,3.75   c1.2,0,2.351-0.05,3.5-0.2c9.1-1.15,16.1-5.85,21.35-14.399c4.649-7.55,7.3-17.1,9.55-26.299c0.649-2.7,1.8-7.75,2.199-11.399   c0.4-3.45-0.149-5.95-1.649-7.7c-2.75-3.2-8.25-3.4-14.649-3.6c-2.9-0.1-5.9-0.2-8.85-0.6c-12.55-1.6-23.1-3.25-34.749-8.1   c-9.6-4-19.199-9-25.599-12.449c-10.7-5.85-22.85-13.1-31.399-25.35h-0.3c8.6,12.35,20.799,19.7,31.599,25.6   c6.35,3.5,15.949,8.45,25.6,12.449c11.699,4.85,22.249,6.5,34.849,8.15c3,0.4,5.999,0.5,8.899,0.6c6.3,0.2,11.8,0.4,14.499,3.5   c1.45,1.7,2,4.149,1.601,7.5c-0.4,3.65-1.55,8.65-2.2,11.35c-4.45,18.299-10.8,37.999-30.648,40.499c-1.15,0.15-2.301,0.2-3.45,0.2   c-5.95,0-11.7-1.8-17.8-3.7c-7.05-2.2-14.399-4.5-23.148-4.5c-1.45,0-2.9,0.05-4.351,0.2c-8.05,0.7-13.299,3.05-18.799,5.5   c-2.55,1.15-5.2,2.3-8.3,3.4c-3,1.05-6.6,2.2-10.6,2.2c-0.8,0-1.55-0.05-2.3-0.1c-5.95-0.65-11.1-3.2-16.55-5.9   c-2.85-1.4-5.8-2.9-8.899-4.05c-8.75-3.3-17.35-5.65-24.8-6.85c-1.899-0.3-3.8-0.55-5.649-0.75c-10-1.3-19.499-2.55-20.1-10.799   c0.45-9.4,6.35-16.25,12-22.849c5-5.8,10.199-11.8,11.6-19.55c0.45-2.6,0.45-6.25,0-9.85c-0.65-5-2.35-10.549-4.05-16.399   c-0.8-2.65-1.601-5.45-2.35-8.149c-0.45-1.75-0.95-3.55-1.5-5.3c-0.2-0.75-0.4-1.55-0.65-2.3h-0.3c0.25,0.8,0.45,1.6,0.649,2.4   C170.844,146.554,171.344,148.354,171.844,150.104z"/>
    <path fill="none" stroke="#FFFFFF" stroke-miterlimit="10" d="M29.849,160.004c2.7-4.15,5.1-9.2,5.15-17.55h-0.25   c-0.051,8.3-2.45,13.3-5.101,17.45c-3.399,5.25-8.3,8.4-13.499,11.7c-1.55,1-3.15,2-4.7,3.1v0.3c1.601-1.1,3.2-2.15,4.8-3.2   C21.449,168.454,26.399,165.304,29.849,160.004z"/>
    <path fill="none" stroke="#FFFFFF" stroke-miterlimit="10" d="M189.144,166.104c1.6,3.6,3.3,7.25,3.85,11.149   c1.55,10.55-3.899,17.399-9.149,24.049c-3.6,4.5-7,8.8-8.05,14.05c-0.3,1.35-0.2,2.15-0.15,3.2c0.051,0.55,0.101,1.15,0.101,1.95   v0.05c1.35,3.75,5.35,6.35,8.5,7.9c11.35,5.6,29.799,8.25,43.298,10.2c2.05,0.3,4.05,0.45,6.15,0.45l0,0   c5.249,0,10.1-0.9,15.249-1.8c5.5-1,11.2-2.05,17.749-2.05c1.75,0,3.5,0.1,5.25,0.2c0.351,0.05,1.351,0.1,2.601,0.2   c1.85,0.1,4.199,0.2,5.85,0.35c5.5,0.4,9.85,1.4,14.05,2.35c5.6,1.25,10.849,2.45,18.698,2.45c0.801,0,1.65,0,2.5-0.05   c6.2-0.95,11.9-7.5,14.15-16.299c1.899-7.25,1.449-16.899-5.4-22.25c-8.05-6.25-31.499-11.75-44.048-12.75   c-2.7-0.25-4.9-0.25-7.05-0.25c-2.4,0-4.9-0.05-8.1-0.3c-8.7-0.8-15.85-4.2-24-11.45c-10.1-8.95-15.549-15.899-23.398-29.649   c-0.851-1.5-1.65-3.3-2.351-5.35h-0.45c0.75,2.1,1.551,3.95,2.45,5.45c7.85,13.75,13.3,20.699,23.449,29.699   c8.2,7.25,15.399,10.7,24.149,11.5c3.25,0.3,5.75,0.3,8.149,0.3c2.25,0,4.351,0.05,7.05,0.25c12.55,1.05,35.898,6.5,43.948,12.75   c6.7,5.25,7.1,14.799,5.3,21.949c-2.25,8.65-7.85,15.1-13.949,16.1c-0.85,0-1.65,0.05-2.45,0.05c-7.75,0-13.05-1.2-18.599-2.45   c-4.2-0.95-8.55-1.9-14.05-2.35c-1.65-0.1-3.95-0.3-5.85-0.4c-1.25-0.05-2.25-0.1-2.601-0.15c-1.749-0.2-3.499-0.25-5.249-0.25   c-6.601,0-12.3,1.05-17.8,2.05c-5.149,0.95-10,1.8-15.199,1.8l0,0c-2.101,0-4.101-0.1-6.1-0.4c-13.45-1.95-31.899-4.55-43.199-10.2   c-3.1-1.5-7.05-4.1-8.35-7.75c0-0.8-0.05-1.4-0.1-1.95c-0.101-1.05-0.15-1.8,0.1-3.1c1.05-5.15,4.4-9.45,8-13.95   c5.3-6.7,10.8-13.6,9.199-24.249c-0.55-3.85-2.25-7.6-3.85-11.2c-0.65-1.4-1.3-2.85-1.899-4.35c-2.051-5.15-4.5-12.1-6.05-19.249   h-0.25c1.55,7.2,3.999,14.199,6.05,19.399C187.844,163.253,188.493,164.704,189.144,166.104z"/>
    <path fill="none" stroke="#FFFFFF" stroke-miterlimit="10" d="M38.799,272.7c3.649-4.05,6.899-8.4,10.35-13   c5.449-7.25,11.1-14.799,18.349-20.999c0.5-0.5,1.051-1,1.5-1.5c0.45-0.45,0.9-0.95,1.4-1.4c4.75-4.2,10.199-7.55,15.399-10.75   c3.65-2.25,7.399-4.55,10.949-7.15c2.801-2.1,5.65-4.25,8.351-6.35c4.149-3.2,8.399-6.5,12.699-9.449   c2.05-1.4,4.149-2.75,6.399-4.15c11-7,23.449-14.95,25.35-29.349c1-7.6-1-17.35-5.25-26.149h-0.3c4.25,8.75,6.25,18.55,5.25,26.149   c-1.9,14.25-14.3,22.149-25.249,29.099c-2.25,1.4-4.351,2.8-6.4,4.15c-4.35,3-8.6,6.3-12.699,9.449c-2.75,2.1-5.55,4.25-8.4,6.35   c-3.499,2.6-7.249,4.9-10.899,7.15c-5.25,3.25-10.699,6.6-15.449,10.799c-0.5,0.45-0.95,0.95-1.4,1.4   c-0.449,0.5-0.949,1.05-1.5,1.45c-7.299,6.2-12.949,13.75-18.399,21.049c-3.449,4.6-6.699,8.95-10.35,13   c-7.249,8.05-16.799,13.5-27.198,15.699v0.3C21.9,286.25,31.549,280.8,38.799,272.7z"/>
    <path fill="none" stroke="#FFFFFF" stroke-miterlimit="10" d="M22.599,262.45c3.55-5.15,3.55-14.549,3.2-22.099   c-0.3-6.15-0.2-17.799,3.8-27.549c3.1-7.45,10.45-14.049,17.55-20.399c1.1-1,2.149-1.95,3.199-2.9   c14.25-13,21.3-24.649,27.55-38.149c0.55-1.15,1-2.35,1.449-3.55c0.551-1.5,1.15-3,1.9-4.45c0.15-0.3,0.3-0.6,0.45-0.85h-0.3   c-0.101,0.25-0.25,0.5-0.4,0.75c-0.75,1.5-1.3,3-1.85,4.5c-0.45,1.2-0.9,2.4-1.45,3.55c-6.2,13.5-13.25,25.149-27.449,38.099   c-1.05,0.95-2.149,1.9-3.2,2.9c-7.149,6.4-14.549,13-17.649,20.549c-4.05,9.75-4.149,21.499-3.85,27.649   c0.4,7.55,0.35,16.899-3.149,22c-2.551,3.65-6.55,6.25-10.95,8.5v0.3C15.9,268.85,19.999,266.2,22.599,262.45z"/>
    <path fill="none" stroke="#FFFFFF" stroke-miterlimit="10" d="M15.35,149.704c1.699-1.8,2.449-4.55,2.449-7.25h-0.3   c0,2.65-0.75,5.4-2.35,7.1c-1.101,1.15-2.4,1.8-3.75,1.8l0,0v0.3l0,0C12.8,151.554,14.199,150.904,15.35,149.704z"/>
    <path fill="none" stroke="#FFFFFF" stroke-miterlimit="10" d="M96.547,146.604c-3.75,4.45-6.5,10.45-9.15,16.3   c-0.399,0.9-0.8,1.75-1.199,2.65c-3.851,8.35-8.7,18.749-13.95,25.849c-2.85,3.9-7.55,6.649-12.549,9.6   c-7.05,4.15-14.35,8.5-17.2,16.449c-1.05,2.85-1.05,6-0.05,9.95c1,2.2,2.7,3.3,5.1,3.3l0,0c3.9,0,8.55-3.05,10.45-4.649   c3.8-3.2,7.1-7.6,10.3-11.9c1.699-2.25,3.5-4.65,5.3-6.85c0.899-1,3.949-4.5,6.499-6c6.05-3.55,13.8-6.3,22-9.149   c11.399-4,23.149-8.1,30.499-14.85c3.899-3.5,6.199-9.05,6.399-15.149c0.2-6.5-2.05-12.7-6.399-17.45   c-0.75-0.85-1.601-1.65-2.5-2.35h-0.45c0.95,0.75,1.899,1.6,2.75,2.55c4.25,4.65,6.5,10.8,6.3,17.25c-0.15,6-2.45,11.5-6.3,14.949   c-7.3,6.65-19.05,10.8-30.399,14.8c-8.199,2.9-15.949,5.6-22.049,9.2c-2.65,1.55-5.65,5.05-6.55,6.05   c-1.85,2.15-3.6,4.55-5.35,6.85c-3.2,4.25-6.45,8.649-10.2,11.8c-1.899,1.6-6.449,4.6-10.3,4.6c-2.25,0-3.899-1.05-4.85-3.15   c-0.95-3.85-0.95-6.95,0.05-9.75c2.8-7.85,10.05-12.15,17.05-16.3c5-2.95,9.699-5.75,12.649-9.699   c5.25-7.1,10.05-17.5,13.949-25.85c0.4-0.9,0.801-1.8,1.2-2.65c2.65-5.85,5.4-11.85,9.149-16.25c1.4-1.7,3.051-3.1,4.851-4.35   h-0.45C99.447,143.654,97.897,145.054,96.547,146.604z"/>
    <path fill="none" stroke="#FFFFFF" stroke-miterlimit="10" d="M201.043,214.252L201.043,214.252c0.5,0.55,0.75,1.2,1.05,1.9   l0.05,0.15l0.051,0.1c1.949,1.8,4.8,2.8,8.149,2.8l0,0c4.7,0,9.399-2,11.699-4.95c1.4-1.8,1.801-3.85,1.301-5.95   c-1-3.9-4.75-5.2-8.8-6.25l0,0l0,0C207.543,203.052,200.394,207.252,201.043,214.252L201.043,214.252z M214.443,202.302   c4,1.05,7.6,2.25,8.6,6.05c0.5,2,0.101,4-1.25,5.7c-2.25,2.9-6.85,4.85-11.499,4.85l0,0c-3.25,0-6.05-1-7.95-2.75l-0.05-0.1   c-0.3-0.7-0.55-1.4-1.05-1.95C200.593,206.402,209.593,203.002,214.443,202.302z"/>
    <path fill="none" stroke="#FFFFFF" stroke-miterlimit="10" d="M272.641,218.752l0.1,0.2h0.051c4.25,2.65,11.299,4.45,17.499,4.45   l0,0c4.1,0,11.199-0.8,13.1-6.3l0,0c0.05-1.9-0.65-3.6-2.101-5.1c-2.699-2.75-8.049-4.45-13.949-4.45   c-7.499,0-15.549,2.9-15.699,9.299v0.05l0.05,0.05C272.091,217.402,272.391,218.102,272.641,218.752z M287.29,207.802   c5.85,0,11.149,1.7,13.749,4.4c1.351,1.4,2.051,3.05,2,4.85c-1.8,5.35-8.849,6.15-12.849,6.15l0,0c-6.15,0-13.1-1.75-17.35-4.4   l-0.05-0.1c-0.301-0.65-0.551-1.4-1-1.9C271.991,210.602,279.941,207.802,287.29,207.802z"/>
    <path fill="none" stroke="#FFFFFF" stroke-miterlimit="10" d="M84.397,344.948c-1.499,6.399-3.05,13.1-2.449,23.049   c5,17.349,10.899,30.399,17.999,40.048c1.65,2.25,3.7,4.8,6.25,6.85c3.649,2.95,8.899,4.7,13.949,4.7l0,0   c5.1,0,9.45-1.75,12.25-4.95c3.1-3.55,4.25-8.65,3.399-15.15c-0.5-3.65-1.8-7.45-3.1-11.2c-1.3-3.7-2.649-7.5-3.1-11.149   c-1.9-14.149,4.149-28.749,16.1-39.148c5.1-4.45,10.35-8,15.399-11.45c5.449-3.75,11.149-7.65,16.499-12.55   c8.149-7.35,17.35-15.75,18.85-28.399v-0.05l0,0c-0.95-5.95-2.8-12.1-9.6-16.5c-3.85-2.5-8.1-3.65-13.399-3.65   c-4.55,0-9.15,0.85-14.1,1.75c-5.3,0.95-10.8,1.95-16.5,1.95c-1.399,0-2.8-0.05-4.1-0.15c-2.7-0.25-6.149-1.1-9.699-1.95   c-4.801-1.15-9.8-2.4-13.75-2.4c-0.85,0-1.6,0.05-2.25,0.2c-5.35,0.8-11,5.45-15.3,9.35c-7.199,6.55-13.999,13.35-15.149,18.95   c-0.449,2.2-0.3,5.7,0,8.25c0.4,3.85,1.25,7.15,2.05,10.3c1.4,5.649,2.851,11.5,2.15,20.849   C86.297,337.048,85.397,340.898,84.397,344.948z M84.747,311.599c-0.8-3.15-1.6-6.45-2-10.3c-0.3-2.55-0.4-6.05,0-8.2   c1.1-5.55,7.899-12.35,15.05-18.849c4.3-3.9,9.899-8.5,15.199-9.3c0.649-0.1,1.399-0.15,2.25-0.15c3.949,0,8.899,1.2,13.699,2.4   c3.6,0.85,7,1.7,9.7,1.95c1.35,0.1,2.75,0.2,4.149,0.2c5.75,0,11.25-1,16.55-1.95c4.949-0.85,9.6-1.7,14.049-1.7   c5.25,0,9.45,1.15,13.3,3.65c6.7,4.35,8.5,10.4,9.5,16.35c-1.5,12.5-10.649,20.849-18.749,28.199c-5.351,4.85-11,8.7-16.45,12.45   c-5.1,3.5-10.3,7.05-15.399,11.5c-12.05,10.4-18.1,25.149-16.199,39.349c0.5,3.65,1.85,7.45,3.149,11.2   c1.301,3.7,2.65,7.55,3.101,11.15c0.85,6.399-0.3,11.45-3.351,14.949c-2.749,3.15-6.999,4.85-11.999,4.85l0,0   c-5,0-10.149-1.75-13.8-4.6c-2.55-2.05-4.55-4.6-6.199-6.8c-7.101-9.6-12.95-22.649-17.95-39.948   c-0.649-9.9,0.95-16.55,2.45-22.899c0.95-4.1,1.85-7.95,2.2-12.55C87.597,323.148,86.147,317.249,84.747,311.599z"/>
    <path fill="none" stroke="#FFFFFF" stroke-miterlimit="10" d="M100.947,344.298c0.3,1.15,0.45,2.35,0.65,3.649   c0.699,4.55,1.55,9.75,6.199,12.2h0.05h0.051c5.649-0.4,9.249-5.45,13.049-10.799c1.351-1.9,2.75-3.85,4.25-5.6   c8.35-9.649,17.8-16.049,26.899-22.249c6.399-4.35,12.449-8.5,17.85-13.5c1.7-0.85,2.899-2.35,4-3.75c0.85-1.05,1.699-2.2,2.85-3.1   c4.899-6.15,6.5-13.299,4.149-18.25c-1.5-3.1-5.249-6.85-14.599-6.85c-1.25,0-2.601,0.1-3.95,0.2c-3,0.3-6.45,0.95-10.1,1.6   c-4.05,0.75-8.6,1.55-13.2,2.05c-0.949,0.1-1.899,0.2-2.8,0.3c-12.299,1.25-19.699,2-27.099,10.7   c-5.25,6.2-8.05,13.899-8.85,24.249c-0.45,6.6-0.101,13.85,0.25,20.199C100.746,338.548,100.897,341.598,100.947,344.298z    M100.597,315.199c0.75-10.25,3.6-17.899,8.749-24.049c7.3-8.65,14.25-9.35,26.899-10.65c0.9-0.1,1.8-0.2,2.8-0.3   c4.6-0.5,9.2-1.35,13.2-2.05c3.6-0.65,7.05-1.3,10.049-1.6c1.351-0.15,2.7-0.2,3.95-0.2c9.25,0,12.899,3.65,14.399,6.7   c2.3,4.85,0.75,11.899-4.1,17.899c-1.15,0.9-2.05,2-2.9,3.1c-1.149,1.5-2.199,2.9-3.899,3.7h-0.05c-5.35,5-11.399,9.149-17.85,13.5   c-9.149,6.2-18.55,12.649-26.949,22.349c-1.5,1.7-2.899,3.7-4.25,5.6c-3.75,5.3-7.3,10.3-12.85,10.65c-4.55-2.4-5.3-7.25-6.05-12   c-0.2-1.3-0.399-2.5-0.649-3.65c-0.05-2.7-0.2-5.7-0.4-8.9C100.496,328.998,100.097,321.749,100.597,315.199z"/>
    <path fill="none" stroke="#FFFFFF" stroke-miterlimit="10" d="M271.841,312.749c2,18.75,3.899,36.499,18.549,49.199   c9.85,8.5,25.749,17.599,40.999,17.599l0,0c9.3,0,16.899-3.45,22.699-10.25c5-5.9,7.55-12.8,10.5-20.799c0.3-0.9,0.649-1.8,1-2.7   c0.6-1.55,1.149-3.05,1.749-4.55c3.3-8.649,6.4-16.799,7.15-23.549c1.7-14.899-3.7-20.949-10.399-26.749   c-10.45-9.05-24-9.7-38.399-10.45c-3.399-0.2-7.449-0.55-11.699-0.95c-6.7-0.6-14.25-1.3-20.6-1.3c-6.85,0-11.299,0.75-13.749,2.4   c-10.2,6.75-8.95,23.199-8,29.899L271.841,312.749z M279.74,280.9c2.4-1.6,6.85-2.35,13.6-2.35c6.3,0,13.899,0.7,20.6,1.3   c4.25,0.35,8.3,0.75,11.699,0.9c14.35,0.7,27.899,1.4,38.249,10.35c6.649,5.75,11.999,11.699,10.3,26.499   c-0.75,6.7-3.851,14.85-7.15,23.499c-0.55,1.5-1.149,3.05-1.699,4.6c-0.351,0.9-0.7,1.8-1,2.7c-2.95,7.95-5.5,14.85-10.45,20.75   c-5.7,6.75-13.249,10.149-22.449,10.149c-15.149,0-31.049-9.05-40.799-17.549c-14.599-12.6-16.449-30.299-18.449-48.999l-0.25-2.2   C270.841,303.849,269.691,287.6,279.74,280.9z"/>
    <path fill="none" stroke="#FFFFFF" stroke-miterlimit="10" d="M285.84,315.849c1.75,16.199,3.25,30.199,16.399,40.549   c6.1,4.85,17.1,10.5,27.999,10.5l0,0c5.4,0,10-1.4,13.6-4.2c10.25-7.9,14.7-24.399,15.399-36.099   c0.8-13.5-4.149-25.399-13.249-31.699c-8.35-5.85-19-6.4-30.249-7.05c-2.45-0.1-4.9-0.25-7.35-0.25c-7.05,0-15.8,0.9-20.3,7.8   c-2.55,5.25-2.399,11.399-2.25,17.299C285.79,313.799,285.79,314.799,285.84,315.849z M288.24,295.499   c4.399-6.75,12.999-7.649,20.049-7.649c2.45,0,4.9,0.1,7.35,0.3c11.2,0.6,21.8,1.15,30.149,6.95c9,6.3,13.949,18.1,13.1,31.499   c-0.7,11.65-5.1,28.049-15.3,35.949c-3.55,2.75-8.05,4.15-13.399,4.15l0,0c-10.8,0-21.749-5.65-27.849-10.45   c-13-10.299-14.449-23.599-16.25-40.349c0-1.05-0.05-2.05-0.1-3.1C285.84,306.799,285.691,300.699,288.24,295.499z"/>
    <path fill="none" stroke="#FFFFFF" stroke-miterlimit="10" d="M124.646,313.249l0.05,0.05c0.4,0.25,0.75,0.65,1.05,1   c0.4,0.45,0.851,0.9,1.351,1.15l0,0h0.05c7.5-1.3,15.999-5.2,22.249-10.15c2.45-1.95,5.351-4.65,5.95-7.95v-0.05l-0.05-0.05   c-0.351-0.5-0.801-0.95-1.2-1.35c-0.35-0.3-0.65-0.6-0.95-0.95v-0.05h-0.05c-1.1-0.1-2.3-0.2-3.5-0.2c-6.5,0-15.399,2-20.749,7.5   c-2.95,3.05-4.35,6.75-4.15,11.049l0,0H124.646z M128.995,302.349c5.25-5.45,14.05-7.4,20.55-7.4c1.2,0,2.35,0.05,3.45,0.2   c0.3,0.35,0.6,0.65,0.899,0.95c0.45,0.4,0.85,0.8,1.15,1.3c-0.551,3.25-3.4,5.85-5.8,7.75c-6.2,4.9-14.649,8.75-22.05,10.1   c-0.45-0.25-0.85-0.65-1.2-1.05c-0.35-0.35-0.649-0.7-1.05-1C124.746,308.999,126.096,305.349,128.995,302.349z"/>
    <path fill="none" stroke="#FFFFFF" stroke-miterlimit="10" d="M313.24,349.047c4.399,2.85,9.3,4.4,13.85,4.4l0,0   c6,0,10.999-2.6,14.6-7.5c8.3-11.45,4.55-33.099-7.35-42.049c-3.2-2.45-8.75-5.4-16.6-5.4c-1.851,0-3.75,0.15-5.65,0.5   c-8.3,1.4-12.649,8-12.499,19C299.64,326.298,301.59,341.498,313.24,349.047z M312.039,299.199c1.9-0.3,3.8-0.45,5.65-0.45   c7.799,0,13.249,2.9,16.499,5.3c5.6,4.25,9.649,11.55,11.1,20.049c1.4,8.3,0,16.399-3.85,21.699c-3.5,4.85-8.5,7.35-14.35,7.35l0,0   c-4.5,0-9.35-1.5-13.7-4.35c-11.549-7.5-13.499-22.549-13.6-30.899C299.64,307.099,303.89,300.599,312.039,299.199z"/>
    <path fill="none" stroke="#FFFFFF" stroke-miterlimit="10" d="M44.698,422.845c1.1,2,2.15,3.85,3.4,5.449l0.05,0.051   c1.699,2.25,4.649,5.949,8.699,5.35c4.4-0.65,10.2-5.85,9.15-13.55c-0.851-6.15-4.95-10.6-12.95-14.1c-0.5-0.2-1.05-0.45-1.55-0.65   c-3.85-1.6-7.5-3.15-9.199-6.85c-1.75-7.25-2.051-17.049-2.45-27.499c-0.3-8.6-0.601-17.55-1.8-25.149   c-2.25-14.699-9.75-23.399-22.949-26.749c-1.15-0.3-2.351-0.55-3.65-0.75v0.3c1.25,0.2,2.45,0.45,3.6,0.75   c13.1,3.3,20.55,12,22.75,26.549c1.149,7.6,1.449,16.5,1.8,25.149c0.35,10.4,0.7,20.25,2.45,27.549c1.749,3.8,5.449,5.35,9.35,7   c0.55,0.25,1.05,0.45,1.55,0.65c7.899,3.45,11.949,7.85,12.749,13.899c1.05,7.5-4.6,12.6-8.899,13.2   c-3.899,0.6-6.8-3.051-8.5-5.199l-0.05-0.051c-1.25-1.6-2.25-3.449-3.35-5.4c-3.4-6.299-6.95-12.699-17.1-10.999   c-4.8,0.75-10.149,3.3-16.399,7.75v0.35c6.3-4.45,11.649-7.05,16.449-7.8C37.799,410.396,41.299,416.745,44.698,422.845z"/>
    <path fill="none" stroke="#FFFFFF" stroke-miterlimit="10" d="M17.999,387.746c5.85-6.45,8.95-15.949,8.6-26.149   c-0.45-9.8-4.1-18.799-9.899-24c-1.7-1.2-3.5-2.05-5.3-2.5v0.25c1.75,0.45,3.5,1.25,5.1,2.4c5.75,5.2,9.35,14.149,9.75,23.849   c0.399,10.1-2.7,19.599-8.5,25.999c-1.95,2.1-4.1,3.9-6.399,5.45v0.3C13.749,391.796,15.999,389.996,17.999,387.746z"/>
    <path fill="none" stroke="#FFFFFF" stroke-miterlimit="10" d="M255.392,389.496c-0.25-1.75-1.05-3.85-1.75-5.55   c-5.55-13.899-18.649-28.449-28.149-36.649c-6.5-5.65-11.949-8.95-16.1-9.75c-0.899-0.2-1.85-0.3-2.85-0.3   c-11.35,0-25.249,11.549-26.149,21.649c0.05,0.5,0.15,1,0.3,1.5c0.15,0.75,0.351,1.5,0.301,2.3v0.05l0,0   c4.05,9.5,8.649,18.449,13.649,26.649c2.25,3.7,4.5,7.25,7.499,10.25c7.2,7.2,19.8,12.25,30.499,12.25l0,0   c5.95,0,10.9-1.5,14.75-4.4C253.842,402.646,256.541,396.546,255.392,389.496z M232.642,411.646L232.642,411.646   c-10.649,0-23.099-5-30.299-12.2c-2.949-2.95-5.25-6.5-7.499-10.2c-5-8.2-9.55-17.149-13.6-26.599c0.05-0.85-0.101-1.65-0.301-2.35   c-0.1-0.45-0.25-0.95-0.3-1.4c0.9-10,14.699-21.399,25.899-21.399c1,0,1.95,0.1,2.85,0.25c4.1,0.85,9.5,4.1,15.949,9.699   c9.45,8.2,22.5,22.699,28.05,36.549c0.649,1.65,1.5,3.75,1.75,5.5c1.1,7-1.601,12.95-7.95,17.75   C243.392,410.146,238.492,411.646,232.642,411.646z"/>
    <path fill="none" stroke="#FFFFFF" stroke-miterlimit="10" d="M230.592,367.297c-5.699-5.2-12.499-9-17.799-9.8   c-1-0.2-1.95-0.25-2.851-0.25c-3.3,0-5.899,1.05-7.85,3.05c-2.25,2.35-3.399,6.05-3.199,10.4c2.3,9.95,4.649,18,11.649,23.699   c4.399,3.65,11.199,6,17.249,6l0,0c7.25,0,12.3-3.35,13.8-9.149c0.45-1.7,0.35-4.2,0.1-5.95   C240.842,379.497,236.792,372.947,230.592,367.297z M241.342,391.146c-1.45,5.7-6.399,8.95-13.55,8.95l0,0   c-6,0-12.699-2.35-17.1-5.9c-6.899-5.649-9.249-13.699-11.549-23.549c-0.2-4.25,0.949-7.85,3.149-10.2   c1.85-1.95,4.45-2.9,7.649-2.9c0.851,0,1.801,0.1,2.801,0.25c10.949,1.75,26.799,15.449,28.698,27.599   C241.692,386.996,241.792,389.446,241.342,391.146z"/>
    <path fill="none" stroke="#FFFFFF" stroke-miterlimit="10" d="M294.29,412.345L294.29,412.345l-0.1-0.05   c-0.75-0.1-1.4-0.15-2.101-0.15c-1.5,0-3,0.25-4.6,0.7c-8.35,2.45-16.8,9.699-19.55,16.85c-2,5.051-1.149,10.6-0.35,16   c0.75,5,1.4,9.699,0.05,13.799c-2.149,6.35-7.85,10.35-13.399,14.25c-5.85,4.1-11.899,8.35-13.399,15.35   c-0.9,4.949,0.4,9.648,3.7,13.6c4.649,5.549,13.199,9.148,21.799,9.148l0,0c5.6,0,10.5-1.5,14.199-4.299   c2.9-2.199,4.9-5.199,7.05-8.4l0.351-0.5c2.1-4.148,2.8-9.148,3.55-14.449c0.649-4.6,1.35-9.35,2.95-14.1   c0.949-2.799,1.999-5.15,2.999-7.35c3-6.9,5.6-12.9,4.35-27.549C301.09,426.794,299.59,416.545,294.29,412.345z M297.14,462.644   c-1,2.25-2,4.6-3,7.398c-1.6,4.75-2.3,9.5-2.949,14.15c-0.75,5.301-1.45,10.25-3.5,14.35l-0.3,0.449c-2.2,3.301-4.101,6.15-7,8.35   c-3.65,2.75-8.5,4.201-14.05,4.201c-8.449,0-16.949-3.551-21.6-9.051c-3.249-3.85-4.55-8.498-3.649-13.398   c1.45-6.9,7.2-10.9,13.25-15.15c5.6-3.898,11.299-7.949,13.499-14.398c1.4-4.201,0.75-8.951,0-13.949   c-0.8-5.4-1.6-10.951,0.35-15.9c2.75-7.1,11.1-14.25,19.35-16.7c1.601-0.45,3-0.65,4.5-0.65c0.65,0,1.35,0.05,2.05,0.15   c5.2,4.149,6.699,14.25,7.399,22.6C302.74,449.843,300.19,455.744,297.14,462.644z"/>
    <path fill="none" stroke="#FFFFFF" stroke-miterlimit="10" d="M51.149,464.744c-1.301-1.1-2.75-1.65-4.3-1.65   c-2.65,0-5.55,1.65-8.05,4.551c-3.05,3.549-4.75,8.199-4.25,11.5c1.2,5.648,6.35,8.6,10.8,8.6l0,0c3.1,0,5.85-1.352,7.6-3.801   C56.598,478.994,55.598,468.593,51.149,464.744z M52.798,483.792c-1.75,2.4-4.35,3.701-7.399,3.701l0,0c-4.35,0-9.35-2.9-10.55-8.4   c-0.5-3.199,1.15-7.75,4.2-11.299c2.399-2.801,5.3-4.451,7.85-4.451c1.5,0,2.899,0.5,4.149,1.6   C55.348,468.693,56.348,478.943,52.798,483.792z"/>
    <path fill="none" stroke="#FFFFFF" stroke-miterlimit="10" d="M147.345,499.542c-0.2-0.4-0.45-0.801-0.55-1.25v-0.051v-0.049   c-1.05-0.75-2.25-1.15-3.5-1.15c-1.899,0-3.85,0.9-5.3,2.449c-1.3,1.4-1.95,3.201-1.8,4.951v0.049c0.95,1.852,2.5,2.9,4.55,2.9l0,0   c3.1,0,6.899-2.699,7.2-6.299l0,0l0,0C147.895,500.443,147.595,499.992,147.345,499.542z M140.795,507.042L140.795,507.042   c-1.899,0-3.399-0.951-4.25-2.699c-0.149-1.701,0.45-3.352,1.7-4.701c1.35-1.449,3.25-2.35,5.1-2.35c1.15,0,2.3,0.4,3.25,1.1   c0.101,0.451,0.351,0.85,0.55,1.25c0.25,0.451,0.5,0.9,0.551,1.35C147.395,504.492,143.795,507.042,140.795,507.042z"/>
    <path fill="none" stroke="#FFFFFF" stroke-miterlimit="10" d="M504.183,147.304c6.4,3.1,13.899,3.4,20.1,0.85   c3.1-1.3,5.75-3.3,7.8-5.75h-0.3c-1.95,2.35-4.5,4.25-7.55,5.5c-6.15,2.55-13.6,2.25-19.899-0.85c-2.05-1-4-2.55-5.85-4.65h-0.351   C499.984,144.704,502.033,146.304,504.183,147.304z"/>
    <path fill="none" stroke="#FFFFFF" stroke-miterlimit="10" d="M277.79,158.154c2.5,1.75,4.851,3.65,7.15,5.45   c5.55,4.35,10.8,8.4,16.549,10.35c6.45,3.2,12.649,4.85,18.55,4.85c4.899,0,9.55-1.1,13.949-3.35   c13-6.55,20.35-20.849,23.149-32.999h-0.3c-2.8,12.1-10.05,26.299-22.999,32.799c-9.65,4.85-20.55,4.35-32.3-1.5   c-5.749-1.9-10.949-6-16.499-10.35c-2.3-1.8-4.649-3.65-7.149-5.4c-2.7-1.9-5.5-3.75-8.2-5.55c-4.899-3.25-9.699-6.45-13.949-9.95   h-0.45c4.3,3.6,9.2,6.85,14.25,10.2C272.341,154.404,275.141,156.254,277.79,158.154z"/>
    <path fill="none" stroke="#FFFFFF" stroke-miterlimit="10" d="M371.188,163.104c1.75,4.25,5.649,6.35,11.85,6.35   c3.149,0,6.399-0.55,9.05-0.95h0.1c0.55-0.1,1.2-0.15,1.85-0.15c2.45,0,5,0.75,7.45,1.45c1.25,0.35,2.55,0.75,3.85,1   c1.05,0.25,2.05,0.4,3.05,0.65c4.15,0.8,8.5,1.65,12.399,3.45c1.551,0.7,3.101,1.4,4.65,2.05c7.649,3.3,15.499,6.7,20.649,13.35   c0.3,0.4,0.6,0.85,0.899,1.25c3.601,5.3,6.7,11,9.65,16.5c3.35,6.2,6.85,12.6,11.049,18.449c4.05,5.7,9.5,12,14.8,18.1   c1.85,2.15,3.55,4.15,5.25,6.15c8.399,9.899,16.3,19.249,30.849,19.249l0,0c3.75,0,7.7-0.6,12.15-1.8   c12.649-3.4,34.898-11.899,42.548-30.299c2-4.9,3.351-11.7,4.8-18.899c1.101-5.45,2.2-11.05,3.65-15.75v-0.9   c-1.55,4.85-2.75,10.85-3.85,16.599c-1.45,7.2-2.801,14-4.801,18.85c-7.6,18.349-29.799,26.749-42.348,30.149   c-4.45,1.2-8.4,1.8-12.05,1.8l0,0c-14.45,0-22.35-9.3-30.649-19.199c-1.7-2-3.399-4-5.25-6.1c-5.249-6.1-10.699-12.45-14.799-18.1   c-4.15-5.85-7.65-12.25-11-18.449c-3-5.5-6.1-11.2-9.649-16.5c-0.3-0.4-0.601-0.85-0.9-1.25c-5.149-6.7-13.05-10.1-20.699-13.45   c-1.55-0.65-3.149-1.35-4.649-2.05c-3.95-1.8-8.3-2.65-12.45-3.5c-1.05-0.2-2.05-0.4-3.05-0.6c-1.25-0.3-2.55-0.65-3.8-1   c-2.45-0.7-5-1.45-7.5-1.45c-0.649,0-1.3,0.05-1.899,0.15h-0.1c-2.601,0.45-5.851,0.95-8.95,0.95c-6.05,0-9.899-2-11.6-6.15   c-1.8-4.25-1.2-11.45-0.65-17.85c0.101-0.95,0.15-1.9,0.2-2.75h-0.3c-0.05,0.9-0.1,1.8-0.2,2.75   C370.037,151.604,369.438,158.854,371.188,163.104z"/>
    <path fill="none" stroke="#FFFFFF" stroke-miterlimit="10" d="M480.484,150.554c7.85,10.649,21.8,16.949,37.249,16.949   c3.85,0,7.6-0.4,11.1-1.15c13.749-3.05,18.149-12.45,20.1-23.899h-0.25c-0.601,3.65-1.45,7.05-2.8,10.1   c-3.2,7.35-8.65,11.65-17.1,13.55c-3.5,0.75-7.25,1.15-11.05,1.15c-15.399,0-29.249-6.3-37.049-16.849c-0.85-2.25-1.6-5-2.3-7.95   h-0.3C478.834,145.454,479.634,148.204,480.484,150.554L480.484,150.554z"/>
    <path fill="none" stroke="#FFFFFF" stroke-miterlimit="10" d="M405.487,156.104c7,1,13.699,3.1,20.099,5.1   c4.15,1.3,8.45,2.65,12.8,3.7c2.8,0.65,5.55,1.2,8.05,1.6c2.55,0.4,4.75,0.55,6.6,0.55l0,0c3.851,0,6.101-0.8,6.8-2.35   c1.95-4.2,3.45-13.35,3.55-22.25h-0.25c-0.1,8.85-1.6,17.899-3.5,22.149c-0.649,1.45-2.899,2.2-6.6,2.2c-1.85,0-4.05-0.2-6.6-0.55   c-2.45-0.4-5.25-0.9-8-1.6c-4.35-1.05-8.649-2.399-12.799-3.7c-6.45-2-13.15-4.1-20.149-5.1c-6.9-1-12.45-5.75-15.649-13.4h-0.301   C392.837,150.254,398.437,155.054,405.487,156.104z"/>
    <path fill="none" stroke="#FFFFFF" stroke-miterlimit="10" d="M559.581,149.254c-0.351,9.7-0.65,18.149-7.149,23.1   c-6.7,5.2-18.45,6.7-27.05,7.75c-0.85,0.1-1.7,0.25-2.5,0.35c-1.449,0.2-3,0.3-4.6,0.3l0,0c-8.75,0-18.049-2.95-27.049-5.75   c-8.05-2.5-16.399-5.15-24.149-5.6l0,0l0,0c-4.45,1.25-5.55,6-5.1,10c1.25,15.649,6.8,28.499,19.1,44.298   c2.449,3.15,4.8,6.4,7.05,9.5c3.85,5.25,7.449,10.25,11.649,14.95c6.3,7.1,14.199,10.649,23.499,10.649l0,0   c10.8,0,22.899-5,33.299-13.799c10.699-11.6,12.3-26.899,13-41.648c0.05-1.15,0.1-2.35,0.1-3.6c0.15-5.9,0.35-13.3,3.25-16.899   c2.55-3.2,5.55-5.65,8.649-7.85v-0.3c-3.149,2.2-6.25,4.7-8.85,8c-2.95,3.65-3.1,11.1-3.3,17.049c-0.05,1.3-0.05,2.5-0.1,3.6   c-0.7,14.649-2.3,29.999-12.95,41.499c-10.3,8.75-22.349,13.75-33.099,13.75c-9.25,0-17.1-3.6-23.299-10.55   c-4.2-4.7-7.8-9.7-11.6-15c-2.25-3.1-4.55-6.3-7.05-9.5c-12.35-15.75-17.85-28.549-19.1-44.148c-0.45-3.85,0.6-8.5,4.899-9.7   c7.75,0.45,16.05,3.05,24.05,5.55c9.049,2.85,18.349,5.75,27.148,5.75l0,0c1.601,0,3.15-0.1,4.65-0.3c0.8-0.1,1.649-0.2,2.5-0.3   c8.6-1.1,20.399-2.6,27.148-7.799c6.6-5.05,6.9-13.5,7.25-23.299c0.1-2.05,0.15-4.15,0.3-6.25c0.05-0.2,0.05-0.4,0.05-0.55h-0.3   c0,0.2,0,0.35,0,0.55C559.781,145.104,559.681,147.204,559.581,149.254z"/>
    <path fill="none" stroke="#FFFFFF" stroke-miterlimit="10" d="M563.731,280.2L563.731,280.2c-1.85,1.45-4.6,3.65-4.3,6.7v0.05   l0.05,0.05c0.601,0.45,1.101,1,1.551,1.5v0.05h0.05c3.35,0.65,6.75,1.05,10.149,1.05l0,0c3.5,0,6.95-0.4,10.3-1.05v-0.3   c-3.4,0.7-6.85,1.05-10.3,1.05c-3.399,0-6.75-0.35-10.05-1c-0.45-0.5-0.95-1-1.5-1.45c-0.25-2.85,2.3-4.9,4.15-6.4l0.05-0.05   c3.2-2.55,7.45-4.5,11.899-6.5c1.95-0.85,3.85-1.8,5.75-2.75v-0.35c-1.95,0.95-3.95,1.9-5.899,2.75   C571.181,275.65,566.931,277.6,563.731,280.2z"/>
    <path fill="none" stroke="#FFFFFF" stroke-miterlimit="10" d="M575.231,144.654c0.3,3.65,3.25,6.9,6.35,6.9v-0.25   c-2.95,0-5.8-3.1-6.05-6.65c-0.1-0.75-0.1-1.5,0-2.2h-0.25C575.131,143.154,575.131,143.904,575.231,144.654z"/>
    <path fill="none" stroke="#FFFFFF" stroke-miterlimit="10" d="M538.382,193.603c-1.75,0-3.6,0.2-5.4,0.55   c-4.05,0.8-8.35,2.05-12.899,3.4c-5.1,1.5-10.449,3.1-15.499,3.95c-4.7,0.85-6.7,2.9-6.2,6.4l0,0c1.65,3.45,2.9,7.3,4.25,11.399   c2.9,8.9,5.899,18.1,13.199,22.849c3.45,2.25,7.65,3.4,12.1,3.4l0,0c7.3,0,14.75-3.05,20-8.149c4.3-4.25,7.449-11.1,8.399-18.399   c1.05-7.7-0.5-15-4.25-20C549.531,195.652,544.281,193.603,538.382,193.603z M547.682,237.201c-5.2,5.1-12.6,8.1-19.8,8.1   c-4.449,0-8.6-1.15-11.999-3.4c-7.25-4.7-10.2-13.85-13.1-22.699c-1.301-4.05-2.55-7.9-4.2-11.399c-0.5-3.3,1.4-5.25,5.95-6.05   c5.05-0.9,10.399-2.45,15.549-3.95c4.55-1.35,8.85-2.6,12.85-3.4c1.851-0.35,3.65-0.55,5.35-0.55c5.851,0,11,2.05,13.45,5.3   C559.931,210.052,556.181,228.901,547.682,237.201z"/>
    <path fill="none" stroke="#FFFFFF" stroke-miterlimit="10" d="M235.642,311.249c1.351,2.55,2.75,5.2,3.851,7.8   c1.05,2.25,2.05,4.6,3.05,6.9c6.149,13.95,12.499,28.449,21.749,40.049c3.55,4.45,7.85,8.7,11.949,12.85   c3.95,3.95,7.7,7.649,10.7,11.399c1.45,1.8,2.7,3.75,3.899,5.65c2.55,3.95,4.95,7.7,8.95,10.25h0.05l1.149-0.1   c15.35-0.9,28.6-1.7,42.699-4.25c10.05-1.8,17.149-3.75,21.099-5.8c8.1-4.15,10.35-11.6,12.7-19.5c0.25-0.8,0.5-1.65,0.75-2.45   c3.449-11.2,8.399-22.549,21.299-29.599l0.05-0.05c0.101-0.1,0.2-0.25,0.301-0.35c2.649-1.4,5.35-2.85,7.999-4.25   c4.65-2.45,9.5-5,14.25-7.45c2.05-1.05,4.1-2.2,6.1-3.2c3.1-1.7,6.35-3.4,9.55-5c2.2-1.05,4.149-2.55,6.1-3.95   c0.45-0.35,0.95-0.75,1.45-1.1c1.8-1.3,3.75-2.65,6-3.5c4.249-1.65,8.899-1.85,13.399-2.1c3.899-0.15,7.949-0.35,11.749-1.45   c3.601-1.05,6.15-1.95,8.2-5.05c6.8-9.9,3.35-17.25-2.2-26.599c-5.85-9.8-12.949-17.45-21.149-22.699c-1.449-0.95-3.05-1.7-4.6-2.4   c-1.7-0.8-3.5-1.65-5.05-2.75c-1.85-1.25-3.6-2.65-5.35-4c-1.4-1.1-2.851-2.2-4.3-3.3c-5.95-4.3-13.05-9.05-21.05-11.85   c-2.649-0.95-5.8-1.1-7.949-1.1c-2.2,0-4.5,0.2-6.45,0.55c-2.45,0.45-4.45,1.55-6.6,2.75c-0.9,0.5-1.85,1-2.8,1.5   c-1.05,0.45-2.15,0.85-3.25,1.2c-1.4,0.5-2.8,0.95-4.1,1.7c-3.25,1.8-6.4,3.85-9.4,5.85c-2.899,1.95-5.949,3.95-9.049,5.649   c-14.65,8.25-27.25,12.9-39.449,14.65c-3.649,0.55-7.35,0.8-11,0.8c-4.55,0-9.1-0.4-13.499-1.25c-3.45-0.65-7-1.6-10.399-2.6   c-6.05-1.7-12.25-3.4-18.3-3.4c-3.35,0-6.399,0.5-9.249,1.55c-5.8,2.15-11,6.55-16.5,11.25c-2.8,2.4-5.699,4.85-8.85,7.2   c-0.7,0.5-1.6,1.15-2.6,1.8c-2.25,1.6-5,3.5-7.4,5.55c-4.449,3.8-5.649,7.3-4.199,12.05   C231.242,302.949,233.392,306.999,235.642,311.249z M234.392,287.2c2.4-2.05,5.15-3.95,7.4-5.55c1-0.7,1.899-1.3,2.6-1.85   c3.15-2.35,6.05-4.8,8.85-7.2c5.45-4.7,10.6-9.1,16.399-11.2c2.85-1.05,5.85-1.55,9.149-1.55c6.05,0,12.25,1.75,18.25,3.45   c3.449,0.95,6.999,1.95,10.449,2.6c4.45,0.8,8.95,1.25,13.55,1.25c3.649,0,7.35-0.25,11.05-0.8   c12.299-1.8,24.898-6.45,39.599-14.699c3.1-1.75,6.149-3.75,9.05-5.65c2.999-2,6.149-4.05,9.35-5.85c1.3-0.7,2.699-1.2,4.05-1.7   c1.1-0.35,2.199-0.75,3.25-1.25c1-0.45,1.949-1,2.85-1.45c2.1-1.15,4.1-2.25,6.5-2.7c1.949-0.4,4.25-0.6,6.399-0.6   c2.15,0,5.25,0.2,7.899,1.15c7.9,2.8,15.05,7.55,20.949,11.85c1.45,1.05,2.9,2.15,4.301,3.25c1.749,1.35,3.499,2.7,5.35,4   c1.6,1.1,3.399,1.95,5.1,2.75c1.5,0.7,3.1,1.45,4.55,2.4c8.2,5.25,15.3,12.85,21.1,22.599c5.499,9.3,8.899,16.6,2.25,26.349   c-2.05,3-4.5,3.9-8.05,4.95c-3.75,1.15-7.8,1.3-11.7,1.5c-4.55,0.2-9.249,0.4-13.549,2.05c-2.25,0.85-4.25,2.2-6.05,3.5   c-0.5,0.35-1,0.75-1.45,1.1c-1.9,1.4-3.9,2.9-6.05,3.95c-3.25,1.6-6.45,3.3-9.6,4.95c-2,1.05-4.05,2.2-6.15,3.25   c-4.749,2.45-9.6,5-14.249,7.45c-2.7,1.45-5.35,2.85-8.05,4.25h-0.05c-0.101,0.1-0.25,0.25-0.351,0.35   c-12.949,7.15-17.949,18.549-21.398,29.799c-0.25,0.85-0.5,1.65-0.75,2.45c-2.351,7.85-4.601,15.25-12.6,19.349   c-3.95,2.05-11,4-21,5.8c-14.1,2.55-27.349,3.35-42.698,4.25l-1.05,0.05c-3.95-2.55-6.35-6.2-8.85-10.149   c-1.2-1.9-2.45-3.85-3.9-5.65c-3-3.75-6.749-7.5-10.699-11.399c-4.15-4.15-8.45-8.4-11.949-12.85c-9.25-11.6-15.6-26-21.7-39.949   c-0.999-2.3-2.05-4.65-3.05-6.9c-1.199-2.6-2.55-5.25-3.899-7.8c-2.25-4.3-4.35-8.3-5.55-12.2   C228.842,294.299,230.042,290.899,234.392,287.2z"/>
    <path fill="none" stroke="#FFFFFF" stroke-miterlimit="10" d="M259.041,329.198l0.5,1.95c5.35,19.899,13.3,31.749,29.35,43.499   l0.35,0.3c8.649,6.3,16.1,11.799,24.398,14.449c4.15,1.35,9.25,2.05,14.65,2.05l0,0c7.199,0,14.549-1.25,19.648-3.35   c13.4-5.55,18.35-17.299,24-30.949c7.449-17.849,20.449-40.948,40.198-49.598c3.6-1.55,7.05-1.9,10.7-2.2   c1.399-0.1,2.85-0.3,4.35-0.45c5.6-0.8,11.85-1.95,19.149-3.5c1.05-0.2,2.05-0.45,3.1-0.65c5.35-1.2,12.399-4.55,14.699-10.1   c1.7-4.1,1.45-7.85-0.699-11.1c-6.45-9.7-28.649-13-37.749-13h-0.2c-4.05,0-8.149,0.4-12.149,0.85c-2.25,0.25-4.6,0.5-6.85,0.65   c-3.851,0.3-6.95,1.35-10.8,3.75c-3.95,2.5-8.25,3.65-13.399,3.65c-3.851,0-7.75-0.65-11.899-1.3c-1.25-0.2-2.551-0.4-3.851-0.6   c-5.399-0.8-11.199-1.15-18.299-1.15c-4.4,0-8.8,0.15-13.1,0.3c-4.25,0.1-8.6,0.25-12.899,0.25c-7.851,0-14.15-0.45-20-1.5   c-1.699-0.3-3.55-0.75-5.499-1.2c-4.2-1-8.95-2.15-13.7-2.15c-2.649,0-4.999,0.3-7.199,1c-11,3.3-20.199,16.799-21.899,27.299   c-0.65,3.95-0.55,7.95,0.3,12.699C255.541,316.199,257.241,322.499,259.041,329.198z M254.241,296.349   c1.7-10.45,10.8-23.749,21.699-27.049c2.25-0.65,4.55-1,7.15-1c4.749,0,9.449,1.15,13.649,2.15c1.949,0.5,3.799,0.9,5.499,1.25   c5.8,1.05,12.149,1.5,20,1.5c4.3,0,8.649-0.1,12.899-0.25c4.25-0.15,8.699-0.3,13.1-0.3c7.05,0,12.85,0.4,18.249,1.15   c1.3,0.2,2.6,0.4,3.85,0.6c4.15,0.65,8.05,1.25,11.95,1.25c5.199,0,9.499-1.15,13.549-3.7c3.801-2.4,6.9-3.45,10.65-3.75   c2.25-0.2,4.6-0.4,6.85-0.65c3.95-0.4,8.1-0.85,12.149-0.85h0.2c9.05,0,31.099,3.3,37.499,12.899c2.1,3.2,2.35,6.85,0.649,10.85   c-2.25,5.45-9.25,8.75-14.499,9.9c-1,0.2-2.05,0.45-3.05,0.65c-7.3,1.55-13.55,2.7-19.149,3.5c-1.45,0.2-2.95,0.35-4.351,0.45   c-3.649,0.35-7.149,0.65-10.749,2.25c-19.85,8.7-32.899,31.799-40.349,49.698c-5.65,13.55-10.5,25.25-23.85,30.749   c-5.05,2.1-12.35,3.35-19.549,3.35l0,0c-5.4,0-10.45-0.7-14.6-2c-8.25-2.6-15.699-8.1-24.35-14.45l-0.399-0.3   c-15.95-11.7-23.899-23.499-29.249-43.349l-0.5-1.95c-1.8-6.7-3.5-13-4.75-20.149C253.692,304.299,253.642,300.249,254.241,296.349   z"/>
    <path fill="none" stroke="#FFFFFF" stroke-miterlimit="10" d="M557.431,324.348l-0.05,0.05c-0.6,1.1-1.2,2.05-1.75,2.9   c-1.85,3-2.949,4.8-3.55,9.75c-0.45,3.9-0.3,7.9-0.1,11.8c0.2,4.6,0.399,9.35-0.4,14c-2.75,16.549-15.899,33.649-30.648,39.699   c-1.4,0.55-3.4,1.3-4.7,1.6c-1.05,0.2-2.05,0.3-3,0.3l0,0c-8.699,0-10.649-8.55-12.6-16.8c-0.45-1.85-0.899-3.75-1.399-5.5   c-2-6.8-4.65-11.25-8.601-14.55c-3.999-3.3-9.399-5.399-17.499-6.899c-3.3-0.6-6.3-0.9-9.25-0.9c-5.649,0-10.999,1.05-17.949,3.5   c-0.3,0.1-0.6,0.2-0.899,0.3c-3.851,1.3-7.15,2.45-9.5,6.1c-4.45,7-8.1,18.299-6.399,26.299c1.699,7.85,7.35,9.45,13.399,11.049   c1.149,0.3,2.35,0.65,3.5,1c1.85,0.6,3.3,1.2,4.6,1.95c9.1,5.1,19.1,9.7,31.599,14.549c10.6,4.1,15.75,13.1,20.699,21.75   c4.851,8.4,9.8,17.148,19.75,21.299c1.499,0.65,3.199,0.951,5.1,0.951l0,0c2.2,0,4.6-0.451,7.249-1.4   c7.101-2.451,13.45-10.1,18.2-16.4c7.449-9.949,16.649-22.35,27.599-30.298c0.3-0.2,0.55-0.4,0.85-0.6v-0.35   c-0.35,0.25-0.649,0.45-1.05,0.75c-10.949,7.95-20.199,20.399-27.648,30.348c-4.7,6.301-11.05,13.9-18.05,16.35   c-2.6,0.9-5,1.352-7.149,1.352l0,0c-1.8,0-3.5-0.301-5-0.951c-9.85-4.15-14.8-12.799-19.6-21.199   c-5-8.699-10.199-17.75-20.85-21.85c-12.449-4.799-22.499-9.449-31.549-14.549c-1.3-0.75-2.75-1.35-4.649-1.95   c-1.15-0.4-2.35-0.7-3.5-1c-5.95-1.65-11.55-3.2-13.199-10.85c-1.7-7.95,1.899-19.149,6.35-26.099c2.25-3.5,5.55-4.7,9.35-5.95   c0.3-0.1,0.6-0.2,0.9-0.3c6.949-2.45,12.249-3.5,17.849-3.5c2.9,0,5.9,0.3,9.15,0.9c15.599,2.85,22.148,8.25,25.948,21.299   c0.5,1.75,0.95,3.65,1.4,5.45c1.95,8.35,4,17,12.85,17l0,0c0.95,0,2-0.1,3.05-0.3c1.35-0.25,3.35-1,4.8-1.6   c7.3-3,14.449-8.75,20.1-16.149c5.6-7.3,9.399-15.75,10.749-23.75c0.75-4.7,0.551-9.45,0.4-14.049c-0.15-3.9-0.3-7.9,0.15-11.8   c0.55-4.899,1.649-6.7,3.5-9.649c0.5-0.8,1.1-1.75,1.749-2.85c5.2-4.25,11.4-6.4,18.35-6.4c1.851,0,3.7,0.15,5.6,0.5v-0.3   c-1.899-0.3-3.8-0.45-5.6-0.45C568.931,317.898,562.681,320.048,557.431,324.348z"/>
    <path fill="none" stroke="#FFFFFF" stroke-miterlimit="10" d="M566.831,343.848c-1.351,3.95-1.601,8.1-1.9,12.85   c-0.1,1.65-0.2,3.35-0.4,5.2c-0.649,7.2-1.999,14.6-3.399,21.799c-1.3,7.1-2.6,13.799-2.85,19.049v0.05l0.05,0.05   c0.85,0.6,1.7,1.2,2.75,1.2c0.2,0,0.399,0,0.55-0.1h0.05c2.65-1.5,5.45-2.9,8.2-4.25c3.899-1.9,7.899-3.85,11.549-6.3v-0.3   c-3.699,2.5-7.699,4.45-11.649,6.399c-2.75,1.35-5.6,2.75-8.249,4.25c-0.15,0.05-0.301,0.05-0.45,0.05c-0.95,0-1.8-0.55-2.601-1.1   c0.25-5.25,1.5-11.9,2.801-18.95c1.35-7.149,2.749-14.6,3.399-21.799c0.2-1.85,0.3-3.6,0.35-5.2c0.301-4.75,0.551-8.8,1.9-12.75   c1.85-5.45,6.399-8.95,11.5-8.95c0.949,0,1.949,0.15,2.949,0.35v-0.25c-0.95-0.25-1.95-0.35-2.949-0.35   C573.381,334.748,568.781,338.298,566.831,343.848z"/>
    <path fill="none" stroke="#FFFFFF" stroke-miterlimit="10" d="M464.685,379.546c-5,0-10,2.45-10.05,7.9v0.05   c1.55,5.35,8.999,11.899,15.449,11.899l0,0c1.6,0,3.05-0.4,4.35-1.2c1.8-1.2,3-3,3.4-5.15c0.5-2.8-0.351-6.15-2.15-8.6   C473.434,381.446,469.184,379.546,464.685,379.546z M477.533,392.996c-0.35,2.1-1.499,3.85-3.3,5c-1.199,0.8-2.6,1.2-4.149,1.2   c-6.399,0-13.699-6.4-15.199-11.7c0.05-5.3,4.949-7.649,9.799-7.649c4.45,0,8.601,1.8,10.75,4.8   C477.184,386.996,478.033,390.246,477.533,392.996z"/>
    <path fill="none" stroke="#FFFFFF" stroke-miterlimit="10" d="M551.531,412.345h-0.05c-0.45-0.2-1-0.25-1.55-0.25   c-2.25,0-4.65,1.4-6.95,2.75c-0.85,0.5-1.75,1-2.649,1.45c-0.5,0.25-1,0.5-1.5,0.75c-7.65,3.75-18.05,8.849-17.35,21.05   c1.05,3.799,4.199,7.648,8.899,7.648l0,0c0.4,0,0.851-0.049,1.35-0.1c8.55-3.549,13.65-13.449,17.149-21.699l0.25-0.6   c1.601-3.7,3.351-7.9,2.4-10.85V412.345z M548.932,423.144l-0.25,0.602c-3.5,8.199-8.6,18.1-17,21.549   c-0.449,0.051-0.85,0.1-1.25,0.1l0,0c-4.55,0-7.649-3.75-8.649-7.4c-0.75-11.998,9.649-17.048,17.199-20.798   c0.5-0.25,1.05-0.5,1.5-0.75c0.851-0.4,1.75-0.95,2.65-1.45c2.25-1.35,4.649-2.7,6.8-2.7c0.449,0,0.949,0.05,1.399,0.2   C552.232,415.445,550.482,419.545,548.932,423.144z"/>
    <path fill="none" stroke="#FFFFFF" stroke-miterlimit="10" d="M457.784,505.892c-2.5-2.299-5.05-3.5-7.5-3.5   c-5.8,0-9.649,6.6-10.449,13.15c-0.6,4.949-0.5,10.299,0.35,14.699c0.851,4.35,2.55,6.5,6.15,7.75c0.8,0.299,1.8,0.549,3,0.75   c1.899,0.4,3.6,0.6,5.149,0.6l0,0c4.15,0,7.2-1.449,9.05-4.301c2.1-3.25,1.8-10.85,1.25-14.799   C464.034,514.542,461.485,509.292,457.784,505.892z M463.334,534.892c-1.8,2.75-4.75,4.148-8.8,4.148   c-1.55,0-3.199-0.199-5.1-0.549c-1.2-0.25-2.149-0.5-2.95-0.75c-3.55-1.201-5.149-3.25-5.949-7.551c-0.851-4.35-1-9.699-0.4-14.6   c0.8-6.398,4.55-12.898,10.2-12.898c2.35,0,4.85,1.15,7.3,3.449c3.649,3.4,6.199,8.551,6.949,14.15   C465.034,523.892,465.435,531.691,463.334,534.892z"/>
    <path fill="none" stroke="#FFFFFF" stroke-miterlimit="10" d="M39.299,593.99c2.55-0.451,4.649-1,6.749-1.5   c2.55-0.6,4.9-1.201,8-1.701c2.85-0.398,5.8-0.648,8.7-0.85c6.499-0.4,13.199-0.85,18.949-3.85c7.199-3.799,7.949-13.398,5.5-21.25   c-4.15-13.299-9.55-22.498-16.45-28.098c-2.699-2.201-5.249-4.701-7.699-7.201c-4.95-4.898-10.1-9.998-16.75-12.699   c-5.1-2.1-10.949-3.6-16.599-5.049c-3.4-0.9-6.95-1.801-10.3-2.85c-1.55-0.451-3.25-1.102-5.05-1.75   c-0.95-0.352-1.95-0.701-3-1.051v0.301c1,0.35,1.949,0.699,2.899,1.049c1.8,0.65,3.5,1.301,5.05,1.75   c3.351,1.051,6.9,1.951,10.3,2.85c5.65,1.5,11.5,3,16.6,5.051c6.6,2.699,11.699,7.75,16.6,12.648c2.45,2.451,5.05,5,7.75,7.201   c6.85,5.549,12.199,14.699,16.349,27.998c2.45,7.75,1.7,17.199-5.35,20.85c-5.699,3-12.35,3.449-18.85,3.9   c-2.899,0.199-5.899,0.4-8.749,0.85c-3.101,0.5-5.6,1.1-8.05,1.699c-2.05,0.5-4.15,1.051-6.7,1.5   c-4.649,0.852-9.35,1.451-13.949,2.051c-4.8,0.65-9.5,1.301-13.899,2.1v0.301c4.35-0.85,9.05-1.451,13.949-2.1   C29.949,595.439,34.649,594.839,39.299,593.99z"/>
    <path fill="none" stroke="#FFFFFF" stroke-miterlimit="10" d="M33.349,577.99c6-1.699,12.199-3.449,18.1-6.049   c5.85-2.551,11.749-5.5,14.35-11.451c3.399-7.799,0.1-16.199-8.9-22.398c-1.55-1.1-2.999-2.15-4.449-3.199   c-6-4.4-11.7-8.551-19.85-10.15c-5.3-1-13.149-1.6-21.199-1.801v0.301c8,0.15,15.85,0.75,21.149,1.801   c8.1,1.6,13.749,5.699,19.749,10.1c1.45,1.049,2.9,2.148,4.45,3.199c8.85,6.15,12.149,14.449,8.8,22.049   c-2.55,5.85-8.45,8.85-14.2,11.301c-5.899,2.6-12.1,4.35-18.099,6.049c-3.101,0.85-6.351,1.801-9.5,2.801   c-4.05,1.299-8.25,2.148-12.3,2.898v0.301c4.1-0.801,8.35-1.6,12.399-2.949C26.949,579.791,30.199,578.839,33.349,577.99z"/>
    <path fill="none" stroke="#FFFFFF" stroke-miterlimit="10" d="M31.399,609.439c6.05,0.25,12.3,0.449,18.399-0.199   c5.6-0.551,10.75-1.701,15.75-2.852c1.25-0.25,2.449-0.549,3.75-0.799c0.949-0.201,1.85-0.4,2.8-0.6   c9.499-2.051,19.399-4.102,27.398-9.6c9.35-6.352,10.55-19.65,6.3-28.85c-3.899-8.4-10.399-15.1-16.699-21.5   c-5.25-5.299-10.649-10.85-14.55-17.35c-1.8-2.35-3.249-4.648-4.649-6.898c-4.6-7.1-8.2-12.75-17.85-15   c-18.549-4.35-34.549-8.051-37.549-26.549c-1.05-6.551,0.4-11.65,1.8-16.6c1.101-3.951,2.15-7.65,1.9-11.85v-0.051h-0.05   c-0.5-0.449-0.95-0.949-1.4-1.4c-0.6-0.648-1.25-1.299-1.95-1.799l-0.05-0.051h-0.05c-1.25,0.1-2.35,0.25-3.3,0.5v0.25   c0.95-0.199,2.05-0.4,3.3-0.449c0.65,0.549,1.3,1.15,1.9,1.75c0.449,0.449,0.899,0.949,1.399,1.35c0.25,4.15-0.8,7.85-1.899,11.699   c-1.4,5-2.8,10.1-1.801,16.699c3,18.65,19.1,22.4,37.749,26.75c9.5,2.199,13.1,7.799,17.649,14.85c1.4,2.25,2.9,4.5,4.7,6.9   c3.85,6.498,9.3,12.049,14.55,17.398c6.3,6.4,12.799,13.049,16.699,21.398c4.199,9.102,3,22.25-6.25,28.551   c-8,5.398-17.8,7.549-27.299,9.498c-0.95,0.201-1.9,0.4-2.8,0.602c-1.25,0.299-2.5,0.549-3.75,0.85c-5,1.1-10.15,2.25-15.75,2.85   c-6.1,0.65-12.3,0.4-18.35,0.199c-6.999-0.25-13.649-0.5-19.999,0.5v0.301C17.749,608.99,24.4,609.189,31.399,609.439z"/>
    <path fill="none" stroke="#FFFFFF" stroke-miterlimit="10" d="M215.992,549.591c0.851,0.4,1.7,0.799,2.351,1.299   c3.1,2.25,5.75,5.35,7.449,7.551c4.25,5.549,6.8,10.898,8.4,17.898c2.3,9.801,8.449,13.65,18.249,17.051   c5.6,1.949,11.85,3,17.999,3c3.101,0,6.15-0.301,9.05-0.801c10.6-1.9,17.399-8.301,18.649-17.65c0.3-1.949,0.65-3.949,1-5.949   c1.45-7.9,2.899-16.1-1.649-23.398c-3.75-5.951-10.85-6.75-17.95-6.75c-1.35,0-2.749,0.049-4.05,0.049   c-1.3,0.051-2.649,0.102-3.899,0.102c-2.55,0-4.45-0.15-6.1-0.352c-5.65-0.898-11.3-2.299-16.75-3.648   c-8.999-2.201-17.449-4.301-25.949-4.301c-1.8,0-3.6,0.1-5.249,0.301c-2.15,0.25-4.101,2.1-5.25,5c-1.05,2.699-1.4,6.299,0.3,8.35   C213.393,548.341,214.742,548.941,215.992,549.591z M212.443,539.091c1.101-2.801,3-4.6,5-4.801c1.7-0.199,3.45-0.299,5.25-0.299   c8.449,0,16.899,2.049,25.85,4.299c5.449,1.352,11.1,2.75,16.799,3.6c1.65,0.301,3.55,0.4,6.15,0.4c1.249,0,2.6,0,3.899-0.049   c1.3-0.051,2.7-0.051,4.05-0.051c7.05,0,14.05,0.801,17.749,6.6c4.55,7.199,3.05,15.35,1.65,23.199c-0.351,2-0.75,4-1,5.949   c-1.25,9.201-7.95,15.5-18.399,17.4c-2.85,0.551-5.899,0.75-9,0.75c-6.149,0-12.35-1.051-17.899-2.949   c-9.749-3.4-15.799-7.201-18.099-16.9c-1.65-7-4.2-12.398-8.5-18c-1.65-2.199-4.35-5.299-7.45-7.6c-0.699-0.5-1.55-0.898-2.35-1.35   c-1.3-0.6-2.6-1.25-3.399-2.15C211.343,545.492,211.243,542.14,212.443,539.091z"/>
    <path fill="none" stroke="#FFFFFF" stroke-miterlimit="10" d="M264.791,585.24c3.149,0,6.45-0.551,7.949-1.051   c0.45-0.148,0.95-0.35,1.351-0.549c2.55-1.201,4.05-3.25,4.1-5.75c0.05-1.949-0.85-4.051-2.3-5.551   c-2.05-2.1-4.899-2.85-7.649-2.049c-2.95,0.9-9.2,4.449-11.05,8.299c-0.65,1.35-0.75,2.6-0.25,3.801   C257.942,584.74,261.741,585.24,264.791,585.24z M257.442,578.689c1.85-3.799,7.949-7.299,10.85-8.199   c0.75-0.199,1.45-0.299,2.149-0.299c1.95,0,3.8,0.799,5.25,2.25c1.45,1.5,2.3,3.498,2.25,5.398c-0.05,2.4-1.45,4.35-3.95,5.5   c-0.399,0.201-0.85,0.4-1.3,0.551c-1.5,0.5-4.75,1.049-7.899,1.049c-4.2,0-6.899-0.949-7.55-2.648   C256.741,581.189,256.841,579.99,257.442,578.689z"/>
    <path fill="none" stroke="#FFFFFF" stroke-miterlimit="10" d="M346.588,685.236c-0.05-0.6-0.05-1.199,0-1.9   c0-0.699,0.05-1.398-0.05-2.1c-0.5-4.299-2.25-9.6-4.1-15.148c-1.9-5.701-3.851-11.551-4.8-17.199c-0.351-2.35-0.65-4.9-0.9-7.4   c-0.75-8.049-1.55-16.35-7.199-20.1c-2.551-1.699-6.3-2.449-11.7-2.449c-3.05,0-6.3,0.25-9.55,0.449c-1.25,0.1-2.5,0.201-3.75,0.25   c-11.149,0.65-34.298,3.551-42.348,9.699c-11.05,8.35-12.35,22.699-12.15,35.65c1.301,16.299,12.45,25.449,24.699,34.648h0.45   c-12.35-9.25-23.599-18.35-24.899-34.648c-0.149-12.85,1.15-27.15,12.1-35.449c8-6.1,31.1-8.949,42.199-9.65   c1.25-0.049,2.5-0.199,3.75-0.25c3.199-0.25,6.499-0.449,9.499-0.449c5.4,0,9.05,0.75,11.6,2.449c5.5,3.65,6.3,11.9,7.1,19.9   c0.2,2.449,0.45,5.049,0.851,7.398c0.95,5.65,2.899,11.551,4.8,17.25c1.85,5.549,3.6,10.799,4.1,15.1   c0.1,0.699,0.05,1.4,0.05,2.049c0,0.701-0.05,1.301,0.05,1.951c0.551,4.25-0.05,9.299-1.5,14.398h0.301   C346.538,694.537,347.138,689.486,346.588,685.236z"/>
    <path fill="none" stroke="#FFFFFF" stroke-miterlimit="10" d="M49.098,687.136c-0.149-3.75-0.05-7.549,0.101-11.199   c0.2-5.6,0.35-10.9-0.601-15.199c-2.35-10.5-15.549-18-27.148-21.5c-3.45-1.051-6.6-1.4-10-1.15v0.25c3.35-0.25,6.5,0.1,9.899,1.15   c11.5,3.5,24.649,10.949,26.949,21.299c0.95,4.25,0.8,9.551,0.601,15.1c-0.15,3.65-0.25,7.449-0.101,11.199   c0.2,4.451,0.05,8.65-0.399,12.5h0.3C49.149,695.835,49.298,691.585,49.098,687.136z"/>
    <path fill="none" stroke="#FFFFFF" stroke-miterlimit="10" d="M332.839,682.787c-0.5-2.551-1.4-5.65-2.4-8.9   c-1.399-4.699-3-10.1-3.85-15.5c-0.25-1.549-0.45-2.998-0.65-4.449c-1.3-9.299-2.3-16.6-8.499-21.498   c-4.25-3.301-12.15-5.301-21.149-5.301c-10.95,0-21.149,2.75-27.299,7.4c-10.05,7.6-10.45,21.049-9.05,30.949   c2.199,10.549,9.8,15.998,19.449,22.949c4.5,3.199,9.149,6.549,13.85,10.799c0.1,0.1,0.25,0.25,0.35,0.35h0.4   c-0.2-0.15-0.4-0.35-0.601-0.549c-4.699-4.301-9.549-7.75-13.85-10.85c-9.6-6.85-17.149-12.301-19.349-22.75   c-1.45-9.85-1.05-23.148,8.949-30.699c6.05-4.6,16.2-7.35,27.1-7.35c8.949,0,16.799,1.949,20.999,5.199   c6.149,4.801,7.1,12.051,8.399,21.301c0.2,1.449,0.4,2.949,0.65,4.449c0.85,5.449,2.449,10.85,3.85,15.549   c1,3.301,1.899,6.35,2.399,8.9c1.051,5.4,0.65,11.35-1.05,16.799h0.301C333.489,694.187,333.889,688.236,332.839,682.787z"/>
    <path fill="none" stroke="#FFFFFF" stroke-miterlimit="10" d="M140.745,667.087c-1.1-3.9-1.95-11.199-1.3-16.301   c0.1-1,0.399-2.148,0.7-3.299c1.05-4.1,2.35-9.199-2.801-12.9h-0.05l0,0c-9.55-1.148-15.35,6.701-20.499,13.65   c-1.35,1.85-2.6,3.5-3.899,5.1c-4.65,4.9-11,8.4-17.75,12.1c-10.399,5.799-21.199,11.799-26.249,23.449   c-1.45,3.301-2.7,7.1-3.899,10.85h0.3c1.199-3.699,2.449-7.5,3.85-10.75c5.05-11.6,15.8-17.549,26.199-23.299   c6.75-3.75,13.1-7.25,17.8-12.199c1.3-1.551,2.6-3.25,3.949-5.051c5.1-6.85,10.8-14.648,20.199-13.549c4.95,3.6,3.75,8.4,2.7,12.6   c-0.3,1.199-0.6,2.35-0.75,3.35c-0.6,5.1,0.2,12.449,1.35,16.35c1.7,6,4.2,12,6.8,18.398c1.9,4.602,3.8,9.35,5.5,14.1h0.3   c-1.699-4.799-3.649-9.549-5.499-14.199C144.895,679.037,142.446,673.037,140.745,667.087z"/>
    <path fill="none" stroke="#FFFFFF" stroke-miterlimit="10" d="M292.04,635.187c-5.95,0-11.8,1.75-15.649,4.65   c-5,3.75-8,8.301-7.45,19.35c3.4,14.049,18.649,21.6,31.249,21.6l0,0c1.65,0,3.2-0.1,4.8-0.4h0.05l0,0c1.7-1.4,3.351-3.15,5-5.35   v-0.051c4.6-14.299,4.4-26.148-0.55-32.549C305.94,637.837,299.59,635.187,292.04,635.187z M309.839,674.986   c-1.6,2.15-3.199,3.852-4.899,5.25c-1.55,0.201-3.1,0.352-4.7,0.352l0,0c-12.549,0-27.648-7.5-30.998-21.4   c-0.551-10.9,2.399-15.398,7.35-19.1c3.8-2.9,9.6-4.6,15.499-4.6c7.45,0,13.699,2.6,17.199,7.15   C314.19,648.937,314.389,660.738,309.839,674.986z"/>
    <path fill="none" stroke="#FFFFFF" stroke-miterlimit="10" d="M227.092,674.587c-1.999-9.6-4.05-19.5-10.299-27.4   c-3.2-4.049-7.2-5.6-12.25-4.898c-10.35,1.549-22.649,10.898-29.299,15.949c-7.4,7.75-10.2,17.049-8.55,28.549   c0.6,4.1,1.75,8.5,2.95,12.799h0.3c-1.2-4.35-2.4-8.75-2.95-12.85c-1.649-11.398,1.15-20.699,8.45-28.35   c6.6-4.998,18.849-14.348,29.148-15.848c0.8-0.102,1.55-0.201,2.3-0.201c3.851,0,7.05,1.6,9.7,4.949   c6.199,7.852,8.3,17.701,10.249,27.25c1.75,8.6,3.601,17.5,8.5,24.699c0.101,0.15,0.15,0.25,0.25,0.35h0.3   c-0.1-0.15-0.25-0.299-0.35-0.5C230.643,692.037,228.842,683.187,227.092,674.587z"/>
    <path fill="none" stroke="#FFFFFF" stroke-miterlimit="10" d="M293.34,653.287L293.34,653.287c-1.05-1.699-2.6-2.699-4.25-2.699   c-0.5,0-1.05,0.1-1.6,0.301l0,0c-1,0.75-1.7,1.949-1.8,3.049c-0.101,0.801,0.149,1.551,0.7,2.15c0.35,0.301,0.699,0.6,1.05,1l0,0   h0.05c0.5,0.199,1.05,0.301,1.55,0.301l0,0c1.7,0,3.3-1,4.25-2.65v-0.051C293.39,654.238,293.34,653.738,293.34,653.287   L293.34,653.287z M293.04,654.687c-0.9,1.6-2.4,2.5-4,2.5l0,0c-0.45,0-0.95-0.1-1.45-0.25c-0.35-0.35-0.699-0.699-1-0.949   c-0.449-0.551-0.699-1.201-0.6-1.951c0.1-1.049,0.75-2.148,1.65-2.85c0.5-0.199,1-0.299,1.499-0.299c1.551,0,3,0.949,3.95,2.5   C293.09,653.787,293.09,654.238,293.04,654.687z"/>
    <path fill="none" stroke="#FFFFFF" stroke-miterlimit="10" d="M24.549,665.136c-3.3-4.049-6.399-5.699-13.1-7v0.301   c6.6,1.25,9.649,2.85,12.899,6.85c5.75,7.1,9.3,20.299,10.15,29.549c0.149,1.701,0.25,3.301,0.25,4.801h0.25   c0-1.5-0.051-3.1-0.2-4.801C33.899,685.537,30.349,672.236,24.549,665.136z"/>
    <path fill="none" stroke="#FFFFFF" stroke-miterlimit="10" d="M194.594,668.587c-0.351,0-0.75,0-1.15,0.049   c-3.6,0.301-6.8,2-9.25,4.85c-3.449,4.102-5,10.4-4.35,17.701c0.25,2.799,0.7,5.648,1.35,8.498h0.25   c-0.6-2.85-1.1-5.648-1.35-8.498c-0.65-7.25,0.85-13.451,4.25-17.5c2.35-2.801,5.5-4.451,9.05-4.75c0.399,0,0.75-0.051,1.149-0.051   c10.75,0,14.7,12.801,18.2,24.049c0.749,2.352,1.449,4.701,2.199,6.801h0.3c-0.75-2.1-1.5-4.449-2.249-6.85   C209.543,681.437,205.543,668.587,194.594,668.587z"/>
    <path fill="none" stroke="#FFFFFF" stroke-miterlimit="10" d="M121.696,679.236c-1.8-0.25-3.6-0.398-5.449-0.398   c-7.25,0-14.399,2-20.6,5.699c-6.05,3.699-11,8.85-14.3,15.1h0.301c6.8-12.699,19.949-20.549,34.599-20.549   c1.8,0,3.6,0.148,5.399,0.35c7.8,1.049,15.5,7.549,21.1,17.748c0.45,0.801,0.85,1.602,1.25,2.4h0.3c-0.4-0.85-0.85-1.699-1.3-2.549   C137.396,686.835,129.646,680.287,121.696,679.236z"/>
    <path fill="none" stroke="#FFFFFF" stroke-miterlimit="10" d="M11.8,690.537c-0.15,0-0.25,0-0.351,0v0.25c0.101,0,0.25,0,0.351,0   c2.05,0,3.749,1.299,4.8,3.75c0.6,1.5,0.949,3.299,0.949,5.1h0.301c0-1.85-0.351-3.701-1-5.201   C15.749,691.937,13.949,690.537,11.8,690.537z"/>
    <path fill="none" stroke="#FFFFFF" stroke-miterlimit="10" d="M101.147,699.636h0.45c4.149-2.85,9.249-4.5,14.449-4.5   c5.1,0,9.8,1.6,13.6,4.5h0.45c-3.851-3.1-8.75-4.75-14.05-4.75C110.647,694.886,105.447,696.585,101.147,699.636z"/>
    <path fill="none" stroke="#FFFFFF" stroke-miterlimit="10" d="M484.134,673.986c-3.101-5.748-6.4-11.699-8.95-17.848   c-1.399-3.352-2.7-7.051-4.05-10.951c-5.8-16.699-12.399-35.598-32.799-35.598c-0.25,0-0.55,0-0.8,0   c-7.399,0.199-14.399,2.75-18.949,4.898c-1.101,0.5-2.25,1.051-3.4,1.602c-3.399,1.549-6.949,3.199-10.149,4.949   c-9.25,5.1-19.899,7.6-30.149,10.049h-0.149c-0.851,0.201-1.8,0.451-2.8,0.602c-6.9,1.449-15.45,3.299-18.149,11.299   c-2.101,6.15-0.15,14.049,1.7,21.648c0.649,2.801,1.3,5.4,1.749,7.9c1.5,8.65,1.601,16.799,0.301,24.199   c-0.2,0.949-0.4,1.9-0.601,2.9h0.3c0.25-0.951,0.4-1.9,0.601-2.85c1.3-7.451,1.2-15.6-0.3-24.25c-0.45-2.5-1.051-5.15-1.75-7.9   c-1.851-7.6-3.75-15.449-1.7-21.498c2.649-7.85,11.149-9.65,17.949-11.1c1-0.201,1.9-0.4,2.8-0.65h0.15   c10.3-2.4,20.949-4.9,30.249-10.049c3.149-1.75,6.699-3.4,10.1-4.951c1.149-0.5,2.3-1.049,3.399-1.549   c4.55-2.15,11.5-4.701,18.85-4.9c0.3,0,0.55,0,0.8,0c20.199,0,26.749,18.85,32.549,35.449c1.351,3.9,2.65,7.6,4.05,10.949   c2.601,6.15,5.851,12.1,8.95,17.85c2.649,4.9,5.2,9.5,7.35,14.25c2.15,4.75,4.45,8.498,6.8,11.248h0.35   c-2.449-2.75-4.749-6.549-6.949-11.35C489.333,683.537,486.783,678.886,484.134,673.986z"/>
    <path fill="none" stroke="#FFFFFF" stroke-miterlimit="10" d="M574.231,624.039c-16.8,6.35-27.999,18.299-32.449,34.648   c-1.25,4.551-2.1,10.35-2.949,16c-1.051,7-2.15,14.25-3.9,19.25c-0.75,2.148-1.85,4.049-3.2,5.748h0.301   c1.35-1.648,2.399-3.549,3.149-5.648c1.8-5.051,2.85-12.301,3.9-19.301c0.85-5.648,1.699-11.449,2.949-15.998   c4.4-16.199,15.55-28.15,32.249-34.449c1.4-0.5,3.75-1.15,5.75-1.6c0.45-0.1,0.95-0.201,1.45-0.25v-0.301c-0.5,0.1-1,0.15-1.5,0.25   C578.031,622.837,575.631,623.488,574.231,624.039z"/>
    <path fill="none" stroke="#FFFFFF" stroke-miterlimit="10" d="M557.931,503.443c-5.35,1.199-10.549,3.799-15.549,6.35   c-5,2.549-10.2,5.15-15.55,6.299c-13.8,3-18.949-9.1-23.449-19.799c-0.65-1.5-1.25-3-1.9-4.4c-2.55-5.6-5.449-10.699-8.699-15.199   c-6.45-9.049-13.899-16.299-22.1-21.498c-7.6-4.801-14.049-7.451-20.149-8.25c-9.949-1.301-16.999,1.75-25.148,5.299   c-1.75,0.75-3.601,1.6-5.45,2.35c-5.399,2.15-11.5,4.65-15.649,10c-3.1,4.051-5.5,8.9-7.75,13.65l-0.55,1.049   c-4.2,8.701-7.3,17.301-10.55,26.4c-0.75,2.049-1.45,4.148-2.2,6.199c-1.949,5.65-3.949,11.449-6.449,16.949   c-1.85,4.199-4.65,7.85-7.35,11.4c-1.5,2-3.101,4-4.45,6.148c-3.5,5.352-8.949,10-14.3,14.5c-1.899,1.65-3.75,3.201-5.449,4.75   c-1.05,0.949-2.2,1.949-3.4,2.949c-5.5,4.75-11.699,10.1-13.35,16.951c-0.199,0.898-0.399,1.799-0.6,2.699   c-1.75,7.65-3.3,14.25-10.949,19c-7.2,4.549-16,5.998-23.699,7.248c-3.65,0.602-7.35,1.102-10.95,1.602   c-6.649,0.85-12.899,1.699-18.549,3.148c-12.95,3.451-20.85,12.451-23.499,26.801c-2.551,13.949,0.05,31.049,2.949,37.998   c2.601,6.299,6.95,11.199,12.2,15.6h0.449c-5.35-4.451-9.749-9.4-12.399-15.75c-2.85-6.9-5.449-23.898-2.899-37.848   c2.649-14.201,10.449-23.15,23.299-26.551c5.65-1.5,11.899-2.35,18.55-3.199c3.6-0.449,7.3-0.949,10.949-1.551   c7.75-1.299,16.549-2.748,23.799-7.35c7.75-4.85,9.25-11.498,11.05-19.148c0.2-0.85,0.45-1.801,0.65-2.699   c1.6-6.75,7.85-12.051,13.299-16.801c1.2-1.049,2.351-2.049,3.4-3c1.7-1.549,3.5-3.1,5.45-4.699   c5.299-4.551,10.799-9.15,14.299-14.549c1.4-2.102,2.95-4.15,4.45-6.1c2.7-3.551,5.55-7.25,7.399-11.451   c2.45-5.5,4.5-11.35,6.45-16.998c0.7-2.051,1.45-4.15,2.149-6.201c3.25-9.049,6.35-17.648,10.55-26.398l0.5-1.051   c2.25-4.699,4.65-9.6,7.75-13.6c4.1-5.299,10.199-7.748,15.499-9.898c1.9-0.801,3.7-1.6,5.45-2.35   c8.1-3.551,15.149-6.6,25.049-5.301c6.101,0.85,12.45,3.4,20.05,8.199c8.199,5.201,15.6,12.4,22.049,21.449   c3.2,4.451,6.1,9.6,8.65,15.15c0.649,1.4,1.25,2.85,1.899,4.4c2.2,5.148,4.65,11,8.25,15.049c4.149,4.65,9.249,6.25,15.499,4.9   c5.35-1.15,10.55-3.801,15.55-6.35c5-2.5,10.199-5.15,15.499-6.301c8.75-1.949,16.8,0.301,23.6,2.701v-0.301   C574.781,503.742,566.731,501.492,557.931,503.443z"/>
    <path fill="none" stroke="#FFFFFF" stroke-miterlimit="10" d="M544.031,603.289c-6.25,6.1-12.199,11.85-19.949,14.1   c-10.8,3.201-18.949-4.75-26.849-12.449c-0.45-0.449-0.95-0.949-1.45-1.4c-4-3.85-8.8-6.799-13.45-9.648   c-3.3-2.051-6.799-4.15-9.899-6.6c-2.35-1.852-4.8-3.551-7.199-5.201c-1.601-1.15-3.3-2.299-4.851-3.449   c-2.649-1.951-4.499-5-6.3-7.949c-0.949-1.602-1.949-3.25-3.1-4.65c-3.05-3.9-7.35-6.9-11.499-9.75   c-7.65-5.25-14.85-10.25-15.35-20.549c-0.301-6.15,1.1-13.75,3.8-20.949c2.6-6.801,7.449-14.15,13.399-20.199   c4.05-4.1,8.149-6.051,12.199-5.701c7.2,0.602,13.35,8.201,17.899,14.801c2.7,3.85,3.75,7.6,4.85,11.549   c0.65,2.301,1.351,4.6,2.351,7.15c1.05,2.5,2.25,4.949,3.449,7.299c1.9,3.75,3.801,7.6,5,11.699c2,6.9,2.4,16.9-0.699,22.65   c-3.051,5.549-1.601,15.049,1.6,20c2.899,4.498,10.199,7.35,16.05,9.699c1.3,0.5,2.55,1.049,3.649,1.5   c0.5,0.25,1.05,0.449,1.55,0.699c1.9,0.85,3.5,1.6,5.35,1.949c9.05,1.852,15.35-2.498,19.1-13.299   c3.95-11.35,1.2-21.648-7.75-29.049c-2.75-2.25-5.85-3.949-8.85-5.6c-1.35-0.75-2.8-1.551-4.149-2.35   c-0.351-0.201-0.7-0.4-1.05-0.65c-3.95-2.35-8.85-5.301-11.55-8.65c-4.05-5.1-7.35-10.6-9.899-16.398   c-1.25-2.951-2.25-6-3.301-9.199c-0.749-2.301-1.55-4.701-2.449-7.102c-2.05-5.498-5.25-10.35-7.5-13.498   c-4.25-5.801-11.949-13.6-19.6-16.449c-12.1-4.5-28.398,7.449-36.398,16.549c-4.5,5.1-7.399,11.449-9.649,17   c-0.601,1.5-1.2,3.049-1.8,4.5c-3.301,8.299-6.45,16.148-11.65,23.398c-1.699,2.35-3.05,4.799-4.399,7.25   c-0.95,1.699-1.95,3.549-3.05,5.25c-2.8,4.398-7.05,7-11.3,9.148c-1.95,1-3.95,1.951-5.899,2.852   c-5.601,2.6-11.4,5.35-16.149,9.799c-3,2.85-4.2,5.85-3.55,8.949c1.05,5.15,6.749,9,11.749,10.85   c10.35,3.85,22.399,2.451,32.949,1.201l1.35-0.15c0.851-0.1,1.7-0.201,2.5-0.301c4.649-0.449,9.1-0.949,13.5-3.449   c0.699-0.4,1.399-0.801,2.1-1.201c6.7-3.799,12.5-7.148,20.149-8.85c4.8-1.1,11.999-1,16.35,1.75c2.199,1.352,3.1,3.4,4.1,5.551   c0.6,1.35,1.2,2.699,2.15,3.949c3.649,4.801,8.649,8.6,13.449,12.25c4.699,3.6,9.6,7.299,13.249,12   c2.2,2.799,4.05,6.25,5.851,9.549c1.8,3.35,3.649,6.801,5.749,9.449c4.351,5.4,10.3,7.25,16.8,5.25   c5.6-1.75,11.85-6.498,17.85-11.148c0.95-0.701,1.8-1.4,2.7-2.051c3.149-2.35,6.199-4.85,9.149-7.25   c8.149-6.6,15.85-12.898,24.499-16.398c3.45-1.4,7.35-2.4,11.6-3.201v-0.299c-4.25,0.85-8.2,1.799-11.699,3.25   c-8.7,3.5-16.45,9.799-24.6,16.449c-2.95,2.4-6,4.9-9.149,7.25c-0.9,0.65-1.8,1.35-2.7,2.1c-6,4.6-12.199,9.35-17.8,11.1   c-6.35,2-12.199,0.15-16.499-5.15c-2.1-2.6-3.85-5.898-5.75-9.35c-1.8-3.35-3.649-6.85-5.85-9.6c-3.7-4.699-8.6-8.449-13.3-12.049   c-4.8-3.65-9.699-7.449-13.399-12.199c-0.899-1.201-1.5-2.551-2.1-3.85c-1-2.201-1.95-4.301-4.15-5.701   c-4.449-2.799-11.699-2.9-16.6-1.799c-7.749,1.75-13.549,5.049-20.249,8.898c-0.7,0.35-1.399,0.75-2.1,1.201   c-4.35,2.449-8.75,2.898-13.399,3.398c-0.8,0.102-1.65,0.201-2.5,0.301l-1.351,0.199c-10.549,1.201-22.549,2.65-32.849-1.25   c-6.199-2.299-10.749-6.498-11.55-10.648c-0.6-3,0.551-5.951,3.5-8.699c4.65-4.4,10.45-7.15,16.05-9.75   c1.95-0.9,3.95-1.85,5.949-2.85c4.2-2.15,8.55-4.801,11.4-9.301c1.1-1.699,2.1-3.5,3.05-5.25c1.35-2.4,2.75-4.9,4.399-7.199   c5.25-7.25,8.399-15.15,11.7-23.449c0.6-1.5,1.199-3,1.8-4.551c2.25-5.5,5.149-11.799,9.6-16.898   c7.949-9.051,24.099-20.9,36.099-16.449c7.6,2.799,15.25,10.6,19.449,16.398c2.3,3.1,5.45,7.951,7.5,13.4   c0.899,2.4,1.7,4.799,2.45,7.049c1.05,3.201,2.05,6.25,3.35,9.25c2.5,5.85,5.85,11.35,9.899,16.5c2.75,3.449,7.65,6.4,11.6,8.75   c0.351,0.199,0.75,0.4,1.101,0.65c1.35,0.799,2.8,1.6,4.149,2.35c3,1.648,6.1,3.35,8.8,5.549c8.85,7.35,11.6,17.549,7.699,28.799   c-3.749,10.65-9.899,14.9-18.849,13.1c-1.8-0.4-3.4-1.1-5.3-1.949c-0.5-0.201-1.05-0.451-1.55-0.701   c-1.101-0.449-2.351-0.949-3.65-1.449c-5.85-2.299-13.05-5.15-15.899-9.6c-3.149-4.9-4.6-14.199-1.6-19.699   c3.149-5.799,2.75-15.949,0.75-22.898c-1.2-4.15-3.15-8-5-11.75c-1.2-2.35-2.4-4.801-3.45-7.301c-1.05-2.449-1.7-4.799-2.35-7.1   c-1.101-3.949-2.15-7.699-4.9-11.6c-4.6-6.6-10.85-14.299-18.099-14.898c-4.15-0.352-8.3,1.6-12.4,5.75   c-5.999,6.1-10.899,13.498-13.499,20.299c-2.75,7.199-4.1,14.898-3.8,21.049c0.5,10.449,8.1,15.65,15.449,20.75   c4.15,2.85,8.45,5.85,11.45,9.699c1.1,1.4,2.05,2.949,3.05,4.65c1.8,2.949,3.649,6,6.3,8c1.6,1.148,3.3,2.35,4.899,3.449   c2.35,1.65,4.85,3.4,7.149,5.199c3.101,2.451,6.601,4.551,9.9,6.6c4.649,2.85,9.449,5.75,13.399,9.65c0.5,0.5,0.95,0.949,1.45,1.4   c7.949,7.75,16.149,15.748,27.099,12.549c7.8-2.25,13.75-8.049,20.1-14.148c5.949-5.801,12.149-11.85,20.499-15.35   c5.35-2.25,11.149-3.5,16.85-4.701v-0.299c-5.75,1.148-11.55,2.449-16.949,4.75C556.232,591.439,550.031,597.49,544.031,603.289z"/>
    <path fill="none" stroke="#FFFFFF" stroke-miterlimit="10" d="M553.732,524.492c-4.3,0.9-8.7,3.1-13.3,5.35   c-7.7,3.801-15.649,7.75-22.999,5.449c-13.2-4.1-18.25-18.098-22.699-30.447c-0.95-2.551-1.8-4.9-2.7-7.201   c-2.05-5.1-4.6-9.799-7.6-13.949c-4.7-6.5-10.45-10.549-16.5-14.799c-0.949-0.65-1.85-1.301-2.8-1.951   c-5.35-3.799-11.899-7.549-19.449-6.5c-2.35,0.352-4.85,1.602-7.199,2.852c-1.5,0.799-2.9,1.5-4.3,2   c-1.051,0.398-2.051,0.75-3.15,1.148c-8.1,2.9-16.449,5.951-22.199,12.5c-1.65,1.9-3.05,4.35-4.45,6.65   c-0.699,1.25-1.399,2.4-2.05,3.5c-2.85,4.35-5.3,9.199-7.35,14.35c-2.149,5.6-3.45,11.6-4.7,17.398   c-1.35,6.25-2.749,12.75-5.249,18.65c-2.601,6.049-9.45,10.398-15.45,14.199c-1.649,1.049-3.199,2.049-4.6,3   c-4.1,2.85-7.7,6.299-11.1,9.699c-2.25,2.199-4.6,4.5-7.05,6.551c-5.7,4.799-8.25,13.049-6.699,21.498   c2.749,14.801,8.499,17.199,20.949,19.299c9.499,1.551,20.549,1.201,33.748-1.1c7.601-1.35,14.85-6.25,21.8-11   c2.55-1.75,4.95-3.35,7.3-4.748c9.8-5.951,21.449-4.701,31.099,3.299c1.25,1,2.5,2,3.75,3c7.35,5.9,14.3,11.449,17.999,20.25   c1.65,3.85,2.7,7.949,3.75,11.949c1,3.9,2.05,7.9,3.65,11.75c2.35,5.75,7,12.049,12.149,16.549c4.399,3.9,11.1,8.1,17.85,6.1   c6.3-1.85,9.999-8.949,13.899-16.5c2.5-4.799,5.1-9.748,8.5-13.85c4.449-5.35,10.399-10.199,14.499-13.398l0.4-0.35   c8.749-6.801,17.049-13.25,27.999-15.4c0.7-0.15,1.399-0.299,2.1-0.35v-0.301c-0.75,0.102-1.45,0.25-2.2,0.352   c-10.999,2.199-19.299,8.648-28.049,15.449l-0.45,0.35c-4.1,3.199-10.05,8.049-14.549,13.398c-3.45,4.15-6,9.1-8.55,13.9   c-3.9,7.5-7.6,14.6-13.75,16.4c-6.6,1.949-13.199-2.201-17.6-6.051c-4.999-4.4-9.749-10.85-12.049-16.5   c-1.601-3.799-2.65-7.85-3.65-11.699c-1.05-4-2.1-8.1-3.75-12c-3.75-8.898-11.05-14.699-18.1-20.35   c-1.199-0.949-2.449-1.998-3.699-2.998c-9.8-8.051-21.499-9.301-31.399-3.352c-2.35,1.4-4.75,3.051-7.25,4.75   c-6.999,4.75-14.199,9.6-21.749,10.951c-13.149,2.35-24.149,2.699-33.648,1.1c-12.3-2.051-18-4.451-20.75-19.051   c-1.55-8.35,1-16.498,6.601-21.199c2.449-2.1,4.8-4.398,7.1-6.6c3.399-3.35,6.949-6.799,11.05-9.648c1.399-0.951,2.949-1.951,4.6-3   c6.05-3.85,12.949-8.201,15.55-14.301c2.55-5.949,3.899-12.449,5.249-18.699c1.25-5.799,2.5-11.799,4.7-17.35   c2-5.1,4.45-9.949,7.3-14.299c0.7-1.1,1.399-2.25,2.1-3.5c1.351-2.35,2.75-4.75,4.4-6.6c5.699-6.5,14.049-9.5,22.049-12.449   c1.05-0.4,2.101-0.75,3.15-1.15c1.399-0.551,2.85-1.301,4.3-2.051c2.35-1.199,4.8-2.449,7.149-2.799   c7.45-1.051,13.899,2.65,19.249,6.449c0.95,0.65,1.851,1.301,2.75,1.9c6.1,4.25,11.8,8.25,16.45,14.75   c2.999,4.148,5.55,8.85,7.6,13.949c0.899,2.25,1.75,4.65,2.699,7.15c4.5,12.398,9.55,26.449,22.899,30.598   c7.4,2.301,15.45-1.65,23.149-5.449c4.65-2.301,9-4.449,13.25-5.35c5.999-1.301,17.099-1.801,27.799-1.551v-0.299   C570.83,522.742,559.731,523.242,553.732,524.492z"/>
    <path fill="none" stroke="#FFFFFF" stroke-miterlimit="10" d="M548.331,313.199c-7.199,5-11.55,12.1-12.85,21.049   c-0.5,3.5-0.1,7.35,0.3,11c0.45,3.85,0.851,7.85,0.25,11.649c-0.649,4.35-2.999,8.2-5.949,9.9c-2.05,1.25-4.35,1.35-6.8,0.45   c-7.8-9.05-14.149-15.05-23.749-18.95c-2.75-1.1-5.5-2.1-8.95-3.15c-1.7-0.55-3.399-1.1-5-1.6c-10.399-3.4-21.199-6.95-38.748-5.5   c-8.4,0.7-14.75,2.25-20.3,7.85c-3.649,3.7-6.399,8.15-9.05,12.45c-1.949,3.1-3.899,6.3-6.199,9.15   c-1.15,1.45-2.55,2.899-3.851,4.3c-1.949,2.05-3.999,4.2-5.499,6.6c-3.101,4.9-3.25,13.1-2.05,18.649   c1.55,7.2,6.149,13.399,10.749,19.149c1.15,1.4,2.2,3,3.4,4.6c3.1,4.451,6.3,9,10.749,11.349c4.9,2.551,10.55,2.602,16,2.201   c1.899-0.1,3.75-0.65,5.649-1.15c2.7-0.75,5.5-1.5,8.2-1c9.6,1.699,20.549,8.4,27.499,14.15c3.8,3.1,7.249,6.549,10.199,10.35   c2.351,2.949,4.55,5.949,6.95,9.148c4.05,5.449,8.3,11.1,13.05,16.65c4.449,5.199,10.249,10.1,19.349,6.949   c5.15-1.801,9.6-4.9,13.75-7.9c6.1-4.5,11.649-10.799,16.999-16.949c4.9-5.6,9.5-10.898,14.1-14.148c1.25-0.9,2.75-1.701,5.1-2.25   v-0.25c-2.399,0.549-3.949,1.398-5.249,2.299c-4.601,3.25-9.25,8.551-14.15,14.199c-5.3,6.102-10.85,12.4-16.949,16.9   c-4.25,3.15-8.55,6.1-13.649,7.85c-8.95,3.1-14.649-1.75-19.05-6.85c-4.749-5.551-8.999-11.199-13.049-16.65   c-2.4-3.199-4.65-6.199-7-9.148c-3-3.801-6.399-7.301-10.25-10.4c-7-5.699-17.949-12.449-27.648-14.148   c-2.75-0.5-5.601,0.25-8.351,1c-1.85,0.5-3.699,1-5.55,1.1c-5.35,0.4-11.049,0.4-15.849-2.15c-4.4-2.35-7.55-6.9-10.65-11.25   c-1.149-1.65-2.25-3.2-3.399-4.65c-4.6-5.65-9.2-11.85-10.7-19c-1.149-5.45-0.999-13.6,2.051-18.449   c1.449-2.35,3.499-4.5,5.449-6.55c1.351-1.4,2.7-2.85,3.85-4.3c2.301-2.9,4.3-6.1,6.2-9.2c2.65-4.3,5.4-8.75,9.05-12.4   c5.45-5.55,11.75-7.1,20.1-7.8c17.499-1.4,28.249,2.1,38.648,5.5c1.649,0.55,3.35,1.1,5,1.6c3.45,1.05,6.199,2.05,8.949,3.15   c9.55,3.85,15.95,9.899,23.649,18.899l0,0h0.05c2.55,0.95,4.9,0.75,7.05-0.45c3-1.75,5.4-5.75,6.1-10.1   c0.601-3.8,0.15-7.8-0.25-11.7c-0.399-3.65-0.75-7.5-0.3-10.95c1.3-8.899,5.6-15.899,12.75-20.849   c8.149-5.65,19.549-8.3,33.099-7.8v-0.3C567.981,304.849,556.531,307.499,548.331,313.199z"/>
    <path fill="none" stroke="#FFFFFF" stroke-miterlimit="10" d="M166.794,167.854c0.45,3.7,1.05,10.6-0.25,15.25   c-2.149,7.65-8.3,14.2-14.249,20.549c-8.4,8.95-17.1,18.199-14.45,30.599c1.45,6.7,5.051,10.85,11.05,12.699   c5.2,1.65,11.649,1.4,18.85,1.05c13.199-0.75,22.149,1.45,27.35,3.4c5.249,2,10.1,5.35,14.799,8.6c6.3,4.35,12.25,8.45,18.949,9.35   c2.7,0.35,4.9,0.3,7.45-0.3c6.3-1.4,11.05-4.55,16.05-7.9c8.55-5.65,17.349-11.55,34.448-8.15c3.75,0.75,7.5,1.85,11.449,3.05   c12.6,3.75,25.649,7.549,40.249-0.15c13.199-6.6,21.499-18.749,29.499-30.549c3.75-5.45,7.6-11.149,11.899-16.149   c5.45-6.35,12.899-15.1,22.05-12.05c3.649,1.2,7.449,1.8,11.149,2.35c5.85,0.95,11.85,1.9,17.249,5.3c3.851,2.45,6.9,5.9,9.8,9.25   c1.351,1.55,2.8,3.2,4.25,4.7c3.3,3.3,5.95,7.2,8.5,10.949c2.199,3.2,4.449,6.5,7.1,9.45c3.55,3.149,6.699,5.899,10.3,9.149   c4.399,4,8.399,8.75,12.249,13.35c7.45,8.85,14.399,17.149,23.55,19.849c6.449,1.9,13.149,1.65,21.649-0.8   c4.55-1.3,10.549-3.85,14.799-5.8c8.6-3.9,18.25-9.25,25.8-14.25c5.899-3.9,10.399-9.4,13.149-16v-0.7   c-2.7,6.8-7.25,12.449-13.3,16.449c-7.6,5-17.249,10.35-25.799,14.25c-4.2,1.9-10.2,4.5-14.7,5.8   c-8.499,2.45-15.099,2.7-21.499,0.8c-9.05-2.65-16.05-10.95-23.449-19.749c-3.85-4.6-7.899-9.35-12.3-13.4   c-3.649-3.3-6.749-6.05-10.299-9.199c-2.65-2.9-4.851-6.2-7.05-9.4c-2.551-3.75-5.25-7.65-8.5-10.95c-1.5-1.5-2.9-3.1-4.25-4.7   c-2.95-3.35-5.95-6.85-9.85-9.25c-5.45-3.45-11.5-4.4-17.35-5.3c-3.649-0.6-7.449-1.2-11.1-2.35   c-9.35-3.05-16.899,5.7-22.35,12.149c-4.3,5-8.149,10.65-11.899,16.149c-8,11.75-16.249,23.899-29.349,30.449   c-14.5,7.7-27.499,3.85-40.099,0.15c-3.95-1.15-7.7-2.25-11.449-3.05c-17.2-3.4-26.05,2.45-34.649,8.2   c-5,3.35-9.699,6.5-15.999,7.85c-2.45,0.55-4.65,0.65-7.3,0.3c-6.65-0.85-12.6-4.95-18.85-9.3c-4.7-3.2-9.55-6.6-14.85-8.6   c-5.2-1.95-14.199-4.15-27.449-3.45c-12.399,0.7-26.449,1.5-29.699-13.5c-2.6-12.25,6.05-21.5,14.4-30.399   c5.999-6.4,12.149-12.95,14.299-20.649c1.25-4.4,0.851-10.75,0.3-15.35c-0.899-7.35-3.05-14.85-5.35-22.799   c-0.25-0.85-0.45-1.7-0.75-2.55h-0.3c0.25,0.9,0.5,1.75,0.75,2.65C163.794,153.004,165.945,160.504,166.794,167.854z"/>
    <path fill="none" stroke="#FFFFFF" stroke-miterlimit="10" d="M552.081,670.386c-1,5.301-1.45,10.75-1.899,16   c-0.4,4.6-0.75,9.049-1.5,13.25h0.25c0.699-4.201,1.1-8.699,1.5-13.199c0.449-5.301,0.949-10.75,1.899-16   c3.4-18.35,12.6-29.299,26.549-31.699c0.9-0.15,1.801-0.25,2.65-0.35v-0.25c-0.9,0.049-1.75,0.15-2.7,0.35   C564.781,640.888,555.531,651.937,552.081,670.386z"/>
    <path fill="none" stroke="#FFFFFF" stroke-miterlimit="10" d="M474.934,684.986c-1.55-5.449-4.05-11.049-6.449-16.449l-0.4-0.949   c-1.55-3.6-2.85-7.4-4.2-11.449c-2.75-8.301-5.6-16.85-11.199-23c-5-5.449-13.149-8.6-22.399-8.6c-5.2,0-10.149,1-14.399,2.9   c-5,2.25-9.05,4.898-12.399,8.148c-2.8,2.701-6.85,4.1-10.8,5.5c-2.65,0.9-5.35,1.85-7.7,3.201   c-7.149,4.049-11.649,9.748-12.999,16.498c-1.25,6.25-1.15,14.35-1,22.15c0.05,4.75,0.149,9.648-0.05,14.199   c-0.05,0.799-0.101,1.65-0.2,2.5h0.3c0.05-0.85,0.1-1.701,0.15-2.5c0.199-4.5,0.149-9.449,0.05-14.199   c-0.15-7.801-0.25-15.85,1-22.1c1.35-6.65,5.8-12.25,12.899-16.299c2.35-1.301,5.05-2.25,7.649-3.15c3.95-1.4,8-2.801,10.85-5.551   c3.3-3.199,7.351-5.85,12.35-8.1c4.2-1.9,9.15-2.85,14.25-2.85c9.149,0,17.249,3.1,22.199,8.5c5.6,6.15,8.449,14.65,11.149,22.898   c1.35,4.051,2.65,7.9,4.2,11.451l0.45,0.949c2.399,5.4,4.85,11,6.399,16.4c0.85,3.049,1.6,6.449,2.35,9.699   c0.4,1.699,0.75,3.299,1.101,4.85h0.3c-0.4-1.551-0.75-3.201-1.15-4.9C476.584,691.437,475.834,688.037,474.934,684.986z"/>
    <path fill="none" stroke="#FFFFFF" stroke-miterlimit="10" d="M462.834,689.736c-0.649-4.299-1.35-9.148-3.1-13.398   c-0.7-1.75-1.75-3.201-2.8-4.602c-0.8-1.049-1.601-2.148-2.25-3.398c-0.95-1.75-1.7-3.701-2.5-5.75   c-2.3-5.85-4.649-11.949-11.149-13.65c-1.55-0.4-3.55-0.6-6.15-0.6c-2.75,0-5.649,0.199-8.249,0.449   c-1.05,0.051-1.95,0.15-2.851,0.201c-8.399,0.5-17.349,3.699-24.049,8.6c-8.05,5.85-10.35,15.699-11.399,22.648   c-0.8,5-1.5,12.35,0.899,18.6c0.101,0.25,0.2,0.5,0.301,0.75h0.3c-0.101-0.299-0.25-0.549-0.4-0.85   c-2.399-6.15-1.649-13.5-0.899-18.5c1.05-6.898,3.35-16.699,11.299-22.498c6.65-4.85,15.6-8,23.899-8.551   c0.9-0.049,1.85-0.1,2.85-0.199c2.601-0.201,5.5-0.451,8.2-0.451c2.55,0,4.55,0.201,6.1,0.65c6.35,1.701,8.649,7.701,10.95,13.449   c0.8,2.102,1.6,4.051,2.5,5.801c0.649,1.199,1.499,2.35,2.249,3.4c1.051,1.398,2.101,2.85,2.801,4.5   c1.699,4.25,2.449,9.049,3.1,13.35c0.45,3.049,0.649,6.449,0.6,9.85h0.25C463.485,696.185,463.284,692.835,462.834,689.736z"/>
    <path fill="none" stroke="#FFFFFF" stroke-miterlimit="10" d="M581.33,658.087L581.33,658.087   c-12.55,1.15-19.499,14.75-21.399,41.549h0.3c1.851-26.6,8.75-40.148,21.1-41.299c0.1,0,0.2,0.049,0.25,0.049v-0.25   C581.481,658.136,581.38,658.087,581.33,658.087L581.33,658.087z"/>
    <path fill="none" stroke="#FFFFFF" stroke-miterlimit="10" d="M578.181,691.787c-1.351,2.25-2.7,4.898-2.95,7.898h0.25   c0.3-2.898,1.6-5.498,2.9-7.699c1.1-0.65,2.149-1.049,3.149-1.15v-0.25C580.531,690.636,579.38,691.037,578.181,691.787   L578.181,691.787z"/>
    <path fill="none" stroke="#FFFFFF" stroke-miterlimit="10" d="M157.295,663.988c2.05-6.701,5.55-10.75,11.049-16.801   c0.851-0.949,1.801-1.898,2.801-2.949c3.899-4.051,8.35-8.65,9.35-13.449c2-9.551-3.95-15.199-10-19.35   c-3-2.051-6.35-3.699-9.6-5.301c-4.2-2.049-8.6-4.199-12.149-7.299c-3.851-3.301-7.15-8.051-9.85-14.049   c-1.2-2.65-1.75-5.551-2.3-8.35c-0.5-2.75-1.051-5.551-2.2-8.15c-5.3-11.85-12.2-25.25-23.499-34.648   c-4.9-4.051-11.15-10.5-12.75-18.199c-1.05-5.051,0.4-9.451,1.6-13l0.2-0.65c2.7-8,10.7-27.049,27.499-31.85   c3-0.85,6.7-1.5,10.6-2.199c4.9-0.85,10-1.699,13.649-3.1c5.75-2.15,9.9-5.1,14.25-8.4l0.649-0.449   c4.15-3.201,9.351-7.15,16.15-6.65c5.85,0.5,12.6,3.551,18.398,8.449c5.851,4.951,9.8,10.951,10.8,16.449   c0.65,3.551,0.95,6.4,1.2,9.201c0.25,2.398,0.45,4.648,0.9,7.148c2.199,12.451,8.149,22.4,17.749,29.5   c7.85,5.75,18.249,9.799,30.999,12c16.55,2.898,30.649-2.551,35.898-5c8.399-3.9,17.35-13.301,25.1-21.85   c7.699-8.5,11.799-13.5,12.699-26.949c0.3-4.35-0.05-8.5-0.4-12.549c-0.1-1.602-0.3-3.201-0.399-4.801   c-0.05-1.199-0.15-2.35-0.3-3.65c-0.4-4.1-0.75-8.299,0-12.648c1.55-8.949,6.75-12.949,15.899-12.051   c11.899,1.102,22.349,9,26.549,20.15c3.35,8.85,0.65,18.1-1.5,25.549l-0.35,1.25c-3.55,12.35-8.35,21.949-14.7,29.449   c-3.6,4.199-7.6,8.15-11.449,12c-1.45,1.398-2.9,2.85-4.35,4.35c-2,2.049-4.25,3.9-6.4,5.699c-2.699,2.25-5.499,4.6-7.899,7.35   c-3.399,3.801-5.899,8.15-7.899,11.85c-6.6,12.15-11.25,22.9-14.1,32.75c-2.601,8.898-9.75,15.949-19.149,18.898   c-12.1,3.801-29.449,3.35-51.548-1.299c-10.85-2.301-17.3-8.5-19.149-18.5c-2.101-11.4-9.8-17.049-17.949-23.049   c-2.101-1.551-4.25-3.15-6.351-4.801c-8.649-7.049-4.35-13.75,0.2-20.85c2.05-3.199,4.15-6.449,5-9.799   c1.45-5.199-0.4-10.75-2.2-16.049c-0.95-2.801-1.8-5.4-2.25-8c-2.1-12.301-4.199-22.051-10.449-26.049   c-3.35-2.15-7.649-2.451-13.2-0.852c-0.899,0.201-1.899,0.5-2.949,0.852c-2.15,0.648-4.55,1.35-6.55,1.799   c-3.45,0.801-7.05,1.25-10.85,1.699c-4.05,0.5-8.2,1.051-12.85,2c-7,1.451-13.1,4.801-17.75,9.701   c-4.55,4.799-7.449,10.898-8.399,17.6c-0.399,2.85-0.5,5.299,0.3,7.949c2.3,7.799,9.35,13.299,15.6,18.1   c1.45,1.1,2.8,2.15,4.1,3.25l0.2,0.199c6.05,5,13.55,11.199,13.25,19.699c-0.3,8.75,0.85,15.15,3.75,21.299   c4.6,9.701,11.049,15.551,22.299,20.301c0.85,0.35,1.7,0.699,2.55,1.049c3.85,1.6,7.85,3.25,11.55,5.35c3,1.701,5.05,3.85,7.2,6.1   c1.199,1.25,2.399,2.551,3.8,3.75c1.699,1.451,3.3,3.4,4.949,5.451c4.25,5.25,9.05,11.199,16.5,9.799   c3.8-0.75,7.55-3.35,11.55-6.15c3.499-2.449,7.049-4.949,11.149-6.549c6.85-2.699,16.499-3.301,26.749-4   c6.199-0.4,12.649-0.85,18.499-1.75c13.35-2.1,22.399-6.799,27.599-14.35c1.551-2.199,2.601-4.699,3.551-7.15   c0.749-1.898,1.499-3.85,2.55-5.6c0.75-1.35,1.949-2.398,3.1-3.449c0.649-0.551,1.3-1.15,1.899-1.801   c1.051-1.199,2.101-2.449,3.101-3.648c1.1-1.352,2.25-2.75,3.5-4.051c1.899-2.049,4.05-3.949,6.149-5.85   c1.9-1.75,3.899-3.551,5.75-5.449c1.5-1.6,2.7-3.301,3.899-4.951c1.3-1.898,2.65-3.799,4.45-5.549c3.05-3,6.2-6.301,8.75-10   c2.149-3.15,3.149-6.199,4.249-9.449c0.301-1,0.65-2.051,1.051-3.1c0.8-2.352,2.3-4.6,3.699-6.75c0.851-1.301,1.7-2.6,2.4-3.9   c2.7-4.949,5-9.9,6.899-14.75c0.5-1.35,1-2.75,1.5-4.1c0.2-0.549,0.4-1.15,0.601-1.699c0.949-2.551,1.899-5.201,2.899-7.701   c2.75-7.35,5.649-14.898,7.149-21.799c0.95-4.398,1.8-9.1,0.75-13.748c-3.449-15.951-18.899-32.55-33.049-35.6   c-6.55-1.4-14.799-1.3-23.249,0.3c-13.999,2.65-19.199,9.399-18.499,24.149c0.149,3.449,0.5,6.9,0.75,10.299   c0.649,7.25,1.3,14.15,0.55,20.801c-0.45,3.799-1.7,7.248-2.65,9.449c-2.05,4.949-6.749,13.449-12.649,22.648   c-5.749,9.051-13.549,15.6-21.299,18.1c-14.75,4.699-34.549,0.051-46.049-10.85c-5.749-5.449-11.899-14.75-8.499-28.049   c0.199-0.801,0.55-1.6,0.949-2.5c0.45-1.051,0.95-2.1,1.2-3.301c1.8-3.1,4-5.85,6.2-8.549c4.899-6.049,9.499-11.799,7.749-19.949   c-0.3-1.5-1-3.1-1.699-4.801c-1.45-3.5-2.9-7.148-1.2-9.299c3.05-3.801,7.199-7.75,11.6-11.9   c7.6-7.249,15.499-14.749,17.749-21.798s-2.35-14.05-4.35-17.05c-2.149-3.2-4.6-6.55-7.149-10.1c-2-2.75-4.05-5.55-6.05-8.35   c-1.601-2.35-3.2-4.6-4.75-6.85c-3.6-5.2-7-10.05-10.5-15.25c-1.399-2.05-2.75-4.3-4.149-6.45c-2.25-3.6-4.6-7.3-6.95-10.45   c-5.149-6.9-10.949-9.7-17.249-8.4s-13.1,6.15-19,10.55c-0.8,0.6-1.6,1.2-2.399,1.8c-11.05,8.3-23.549,17.649-26.85,28.049   c-2.8,8.85,2.351,13,7.8,17.349c0.601,0.45,1.2,0.95,1.75,1.45c3.65,3,6.4,6.1,8.65,8.7c3.05,3.6,5.749,7.85,8.35,12   c1.85,2.9,3.6,5.75,5.3,8c6,7.85,13.749,11.3,21.249,14.7c7.35,3.3,14.949,6.65,20.699,14.15c0,0.299,0,0.549,0,0.799   c0,0.801,0.05,1.602-0.149,2.301c-6.851,7.4-15.3,9.25-25.949,5.699c-3.25-1.1-6.45-2.799-9.85-4.648   c-7.601-4.102-15.45-8.352-24.449-5.602c-6.5,1.951-11,6.551-15.399,10.951c-4.301,4.398-8.75,8.898-15.2,11.148   c-3.75,1.301-7.649,1.65-13.149,2.1c-13.8,1.051-20.449,2.65-26.099,9.801c-7.45,9.5-16.7,26.299-19.5,33.199   c-1.1,2.75-1.8,4.85-2.1,6.35c-2.4,12.1,5,21.549,11.75,28.449c1.6,1.65,3.399,3.199,5.149,4.648c1.55,1.301,3.149,2.701,4.6,4.15   c3,3,5.4,6.6,7.75,10.051c1.2,1.75,2.399,3.549,3.649,5.299c9.25,12.35,12.05,23.1,9.05,34.949   c-2.149,8.5-7.1,19.199-18.499,22.148c-4.149,1.051-8.7,1.602-13.399,2.15c-4.4,0.551-9,1.051-13.45,2.1   c-3.899,0.9-7.6,2.051-11.199,3.201c-5,1.549-9.699,3.049-14.6,3.648c-8.55,1.15-16.149-0.648-23.499-2.35   c-6.5-1.5-12.649-2.949-18.699-2.15v0.301c6.05-0.85,12.149,0.6,18.649,2.1c7.35,1.701,14.999,3.5,23.599,2.35   c4.9-0.648,9.6-2.1,14.649-3.699c3.551-1.15,7.25-2.25,11.2-3.15c4.45-1,9-1.549,13.399-2.049c4.75-0.551,9.25-1.051,13.449-2.15   c9.1-2.35,15.55-10.049,18.649-22.299c3-11.9,0.2-22.75-9.1-35.199c-1.25-1.699-2.449-3.5-3.649-5.25   c-2.351-3.5-4.75-7.049-7.8-10.049c-1.45-1.5-3.05-2.852-4.6-4.15c-1.7-1.5-3.5-3-5.101-4.65   c-6.699-6.85-14.049-16.199-11.649-28.199c0.3-1.5,1-3.549,2.1-6.299c2.801-6.9,12-23.65,19.45-33.15   c5.6-7.1,12.249-8.699,25.949-9.748c5.499-0.4,9.399-0.801,13.199-2.102c6.5-2.248,10.949-6.799,15.3-11.199   c4.499-4.648,8.799-9,15.249-10.898c8.95-2.701,16.749,1.5,24.299,5.549c3.4,1.85,6.601,3.6,9.85,4.699   c10.75,3.602,19.35,1.701,26.25-5.748v-0.051c0.199-0.801,0.199-1.65,0.149-2.449c0-0.301,0-0.551,0-0.852v-0.049l-0.05-0.051   c-5.75-7.6-13.399-11-20.8-14.299c-7.449-3.3-15.199-6.8-21.148-14.6c-1.7-2.25-3.5-5.05-5.3-8c-2.601-4.15-5.3-8.399-8.4-12.049   c-2.25-2.6-5-5.7-8.699-8.75c-0.601-0.5-1.2-0.95-1.75-1.4c-5.4-4.35-10.5-8.399-7.75-17.099c3.3-10.35,15.75-19.649,26.749-27.899   c0.8-0.6,1.601-1.2,2.4-1.8c5.85-4.45,12.649-9.25,18.899-10.5c6.249-1.25,11.949,1.5,17.049,8.299c2.351,3.1,4.65,6.85,6.95,10.4   c1.35,2.15,2.75,4.35,4.149,6.45c3.5,5.2,6.9,10.1,10.5,15.25c1.55,2.2,3.149,4.5,4.8,6.85c1.95,2.8,4,5.649,6,8.35   c2.6,3.55,5.05,6.899,7.149,10.1c1.95,2.95,6.55,9.899,4.35,16.799c-2.25,7-10.1,14.45-17.699,21.649   c-4.399,4.2-8.6,8.149-11.6,11.95c-1.8,2.299-0.3,6,1.2,9.549c0.7,1.699,1.35,3.301,1.649,4.75c1.75,8.049-2.85,13.75-7.699,19.75   c-2.15,2.699-4.45,5.5-6.2,8.6v0.049c-0.25,1.15-0.699,2.25-1.199,3.25c-0.351,0.9-0.75,1.701-0.95,2.5   c-2.7,10.5,0.35,20.549,8.6,28.35c11.55,10.949,31.449,15.549,46.299,10.9c7.85-2.5,15.649-9.15,21.398-18.201   c5.9-9.248,10.649-17.699,12.649-22.699c0.95-2.25,2.2-5.648,2.65-9.498c0.75-6.701,0.149-13.551-0.5-20.85   c-0.3-3.35-0.65-6.85-0.8-10.25c-0.351-7.449,0.8-12.699,3.6-16.4c2.85-3.749,7.5-6.149,14.649-7.449   c8.399-1.6,16.649-1.7,23.149-0.3c14.1,3,29.399,19.55,32.849,35.399c1,4.6,0.2,9.25-0.75,13.648c-1.5,6.9-4.35,14.449-7.149,21.75   c-0.95,2.549-1.95,5.15-2.85,7.75c-0.2,0.549-0.4,1.15-0.65,1.699c-0.45,1.35-0.95,2.75-1.5,4.1   c-1.85,4.801-4.149,9.75-6.85,14.699c-0.7,1.301-1.601,2.602-2.4,3.9c-1.399,2.15-2.949,4.451-3.75,6.801   c-0.35,1.049-0.699,2.1-1.05,3.1c-1.05,3.199-2,6.299-4.149,9.398c-2.55,3.65-5.75,6.951-8.75,9.951c-1.8,1.75-3.149,3.699-4.5,5.6   c-1.149,1.699-2.35,3.4-3.85,4.949c-1.8,1.9-3.8,3.75-5.75,5.449c-2.1,1.9-4.199,3.801-6.149,5.9c-1.2,1.301-2.35,2.701-3.5,4.051   c-1,1.199-2,2.449-3.1,3.648c-0.551,0.65-1.25,1.25-1.851,1.801c-1.149,1.051-2.35,2.1-3.1,3.5c-1.05,1.799-1.85,3.75-2.6,5.6   c-0.95,2.449-2,4.949-3.5,7.15c-5.2,7.449-14.149,12.1-27.449,14.199c-5.85,0.949-12.249,1.35-18.499,1.799   c-10.25,0.701-19.949,1.301-26.85,4.051c-4.05,1.6-7.699,4.1-11.199,6.549c-3.95,2.75-7.7,5.4-11.449,6.102   c-7.3,1.398-12.05-4.451-16.3-9.65c-1.7-2.1-3.3-4.051-5-5.5c-1.4-1.199-2.649-2.5-3.8-3.75c-2.2-2.25-4.2-4.4-7.25-6.15   c-3.75-2.1-7.75-3.75-11.6-5.35c-0.85-0.35-1.7-0.699-2.55-1.049c-11.199-4.701-17.649-10.5-22.149-20.15   c-2.899-6.148-4-12.449-3.699-21.199c0.3-8.6-7.3-14.898-13.4-19.898l-0.199-0.15c-1.301-1.1-2.65-2.15-4.101-3.25   c-6.499-5.051-13.249-10.299-15.549-18c-0.75-2.6-0.65-5.049-0.25-7.85c1.899-13.75,11.85-24.148,25.898-27.049   c4.601-0.949,8.75-1.449,12.8-1.949c3.8-0.5,7.45-0.951,10.899-1.701c2-0.449,4.45-1.148,6.601-1.799c1.05-0.301,2-0.6,2.949-0.85   c5.45-1.5,9.7-1.201,13,0.85c6.149,3.898,8.25,13.6,10.3,25.85c0.449,2.6,1.3,5.248,2.25,8.049c1.75,5.299,3.6,10.75,2.199,15.9   c-0.899,3.299-3,6.549-4.999,9.699c-4.601,7.199-8.95,14-0.15,21.199c2.1,1.699,4.25,3.299,6.35,4.85   c8.1,5.949,15.75,11.6,17.85,22.898c1.899,10.1,8.399,16.35,19.35,18.65c22.099,4.699,39.498,5.1,51.647,1.299   c9.5-3,16.7-10.1,19.3-19.049c2.85-9.85,7.449-20.549,14.1-32.748c2-3.701,4.55-8,7.899-11.801c2.35-2.699,5.2-5.049,7.899-7.299   c2.15-1.801,4.4-3.65,6.4-5.701c1.399-1.449,2.899-2.949,4.35-4.35c3.899-3.85,7.899-7.85,11.5-12.049   c6.399-7.5,11.199-17.15,14.749-29.549l0.351-1.25c2.149-7.449,4.85-16.799,1.499-25.75c-4.249-11.199-14.699-19.148-26.749-20.299   c-9.299-0.85-14.6,3.15-16.149,12.299c-0.75,4.352-0.399,8.602,0,12.75c0.101,1.25,0.2,2.451,0.3,3.65   c0.101,1.65,0.25,3.25,0.4,4.801c0.35,4.049,0.7,8.248,0.4,12.549c-0.95,13.35-5,18.398-12.65,26.799   c-7.749,8.5-16.699,17.9-24.999,21.799c-5.249,2.451-19.249,7.85-35.748,5c-28.299-4.9-44.599-18.75-48.549-41.299   c-0.399-2.449-0.649-4.75-0.85-7.1c-0.3-2.799-0.55-5.65-1.25-9.25c-1-5.549-4.95-11.6-10.85-16.6   c-5.85-4.898-12.6-7.998-18.55-8.498c-6.899-0.551-12.1,3.449-16.299,6.699l-0.601,0.449c-4.399,3.35-8.499,6.301-14.199,8.4   c-3.65,1.35-8.75,2.199-13.649,3.1c-3.9,0.65-7.6,1.35-10.6,2.199c-16.899,4.852-24.999,24-27.699,32l-0.2,0.65   c-1.25,3.6-2.7,8-1.6,13.1c1.649,7.75,7.899,14.248,12.85,18.35c11.249,9.35,18.199,22.699,23.449,34.549   c1.149,2.549,1.649,5.35,2.199,8.049c0.551,2.801,1.101,5.75,2.351,8.449c2.699,6.051,6.05,10.801,9.899,14.15   c3.6,3.15,8,5.25,12.25,7.299c3.25,1.6,6.6,3.201,9.6,5.301c6,4.15,11.85,9.699,9.899,19.1c-0.95,4.699-5.35,9.25-9.25,13.299   c-1,1.051-1.949,2.051-2.8,3c-5.5,6.051-9,10.1-11.05,16.9c-1.55,5.049-1.649,14.098-0.25,20.598c1.15,5.25,2.5,10.301,3.9,15.1   h0.3c-1.4-4.85-2.8-9.898-3.95-15.199C155.695,677.986,155.795,669.037,157.295,663.988z"/>
  </g>
</svg>